<?xml version="1.0" encoding="utf-8"?>
<!-- Generator: Adobe Illustrator 21.1.0, SVG Export Plug-In . SVG Version: 6.00 Build 0)  -->
<svg version="1.1" id="Layer_1" xmlns="http://www.w3.org/2000/svg" xmlns:xlink="http://www.w3.org/1999/xlink" x="0px" y="0px"
	 viewBox="0 0 329.1 280.3" style="enable-background:new 0 0 329.1 280.3;" xml:space="preserve">
<style type="text/css">
	.st0{opacity:0.1;enable-background:new    ;}
	.st1{fill:#1F1F1F;}
	.st2{fill:#575757;}
	.st3{fill:#4B4B4B;}
	.st4{fill:#6A6A6A;}
	.st5{fill:#FFECBF;}
	.st6{fill:#4F4F4F;}
	.st7{fill:#595958;}
	.st8{fill:#F2EEE5;}
	.st9{fill:#EEDEB2;}
	.st10{fill:#7A7A79;}
	.st11{fill:#F1DEB4;}
	.st12{fill:#59370E;}
	.st13{fill:#2F61A7;}
	.st14{fill:#FDF9F0;}
	.st15{fill:#2D91AE;}
	.st16{fill:#83CADE;}
	.st17{fill:#F5F5F5;}
	.st18{fill:#E5E5E5;}
	.st19{fill:#C0BDCB;}
	.st20{fill:#CBCBCB;}
	.st21{fill:#C4C4C4;}
	.st22{fill:#C2C2C2;}
	.st23{fill:#362B28;}
	.st24{fill:#262626;}
	.st25{fill:#5BA3A1;}
	.st26{fill:#FFC9AE;}
	.st27{fill:#2B2B2B;}
	.st28{fill:#454545;}
	.st29{fill:#8C5141;}
	.st30{fill:#404040;}
	.st31{fill:#1C1C1C;}
	.st32{fill:#242424;}
	.st33{fill:#919191;}
	.st34{fill:#BDBDBD;}
	.st35{fill:#6CC2BF;}
	.st36{fill:#574641;}
	.st37{fill:#7EE3DF;}
	.st38{fill:#636363;}
	.st39{fill:#8F8F8F;}
	.st40{fill:#E8D6C8;}
	.st41{fill:#E0C5B2;}
	.st42{fill:#CFB6A4;}
	.st43{fill:#6E5C2D;}
	.st44{fill:#545454;}
	.st45{fill:#317278;}
	.st46{fill:#367CB5;}
	.st47{fill:#006F96;}
	.st48{fill:#4899DB;}
	.st49{fill:#D65353;}
	.st50{fill:#D68A6F;}
	.st51{fill:#F7D880;}
	.st52{fill:#F0895D;}
	.st53{fill:#F7C080;}
	.st54{fill:#DEA14D;}
	.st55{fill:#F7C785;}
	.st56{fill:#CDDB9E;}
	.st57{fill:#0D626B;}
	.st58{fill:#117B87;}
	.st59{fill:#73350F;}
	.st60{fill:#9E4915;}
	.st61{fill:#E6C05E;}
	.st62{fill:#B53636;}
	.st63{fill:#0D0D0D;}
	.st64{fill:#1A1A1A;}
	.st65{fill:#2E2E2E;}
	.st66{fill:#FFDDC7;}
	.st67{fill:#333333;}
	.st68{fill:#CADFE3;}
	.st69{fill:#E6C9B6;}
	.st70{fill:#522F26;}
	.st71{fill:#E3FBFF;}
	.st72{fill:#851F1F;}
	.st73{fill:#AFC0C4;}
	.st74{fill:#212121;}
	.st75{fill:#FFD5C9;}
	.st76{fill:#544845;}
	.st77{fill:#4F4948;}
	.st78{fill:#705F5C;}
	.st79{fill:#FFE5DB;}
	.st80{fill:#FFEFD4;}
	.st81{fill:#24749E;}
	.st82{fill:#32A1DB;}
	.st83{fill:#FFC23D;}
	.st84{fill:#C1DBE8;}
	.st85{fill:#59361C;}
	.st86{fill:#694521;}
	.st87{fill:#E0C29B;}
	.st88{fill:#FFDCB0;}
	.st89{fill:#9E9E9E;}
	.st90{fill:#515451;}
	.st91{fill:#C9AB5F;}
	.st92{fill:#E6B771;}
	.st93{fill:#FFCB7D;}
	.st94{fill:#5E5E5E;}
	.st95{fill:#3B3B3B;}
	.st96{fill:#7FB3D4;}
	.st97{fill:#99D8FF;}
	.st98{fill:#B5E3FF;}
	.st99{fill:#704D3D;}
	.st100{fill:#4578AB;}
	.st101{fill:#D6B39A;}
	.st102{fill:#54140D;}
	.st103{fill:#801E14;}
	.st104{fill:#E9CAB1;}
	.st105{fill:#523F28;}
	.st106{fill:#E9D6C6;}
	.st107{fill:#FFFFFF;}
	.st108{fill:#589ADB;}
	.st109{fill:#8CC6FF;}
	.st110{fill:#6E5536;}
	.st111{fill:#58889E;}
	.st112{fill:#173438;}
	.st113{fill:#285A61;}
	.st114{fill:#472921;}
	.st115{fill:#6CA7C2;}
	.st116{fill:#7DC1E0;}
	.st117{fill:#918582;}
	.st118{fill:#453F3E;}
	.st119{fill:#5E5654;}
	.st120{fill:#C4B3B1;}
	.st121{fill:#756B6A;}
	.st122{fill:#EBD8D5;}
</style>
<title>decaf-graphic</title>
<path class="st0" d="M283.6,123c4.1,6.2-9.4,10.2-16.5,12.4c-7.1,2.2-21.3-7.5-28.5-16.5s8.5-11,9.5-10.8
	C257.9,109.9,279.5,116.7,283.6,123z"/>
<path class="st1" d="M255,111.8c0,0-4.5,4.3-5.1,4.8s-6,3.4-4.3,4.8c2.7,0.3,5.5,0.3,8.2-0.2c1.7-0.8,3.3-1.9,4.7-3.1
	c0.3-0.3,1,0.2,1,0.2c0.7-0.2,1.5-0.4,2.1-0.8c-0.4-0.7-0.6-5.7-0.6-5.7L255,111.8z"/>
<path class="st2" d="M269.8,119.9c0,0-4.5,4.3-5.1,4.8s-6,3.4-4.3,4.8c2.7,0.3,5.5,0.3,8.2-0.2c1.7-0.8,3.3-1.9,4.7-3.1
	c0.3-0.3,1,0.2,1,0.2c0.7-0.2,1.5-0.4,2.1-0.8c-0.4-0.7-0.6-5.7-0.6-5.7L269.8,119.9z"/>
<path class="st3" d="M264.2,67.4l-2.8,44.1c0,0,0.4,3.5-0.5,3.9c-5.5,2.6-9-2.3-9-2.3l1.1-2.4L250.8,65L264.2,67.4z"/>
<path class="st4" d="M273.1,65.7l3.8,55.2c0,0-2.5,2.1-4.3,2.1c-1.8,0-5.9-2.2-6.4-2.6c-0.4-0.4,1-2.2,1.3-2.7s-0.7-5-1.6-14.1
	c-0.9-9.1-6.4-39.1-6.4-39.1L273.1,65.7z"/>
<path class="st5" d="M238.1,43l1.4,1.3l-1.8,3.4c0,0-7.6,3.3-8.5,3.4s-4.9-2.3-4-2.9s5.4-3.5,5.4-3.5s1.9-0.6-0.6-0.7
	s-0.8-1.4-0.8-1.4s1.2,0,3.3-0.2c3.8-0.3,5.6,0.9,5.6,0.9L238.1,43z"/>
<path class="st6" d="M256.7,20.5c1.8,3.3,0.2,29.3,0.2,29.3s-17.7-1.3-19.5-1.9s-1.8-6.7-1.8-6.7l14.8,0.5c0,0-1-16.6-0.6-19.9
	c0.1-1.8,1.3-3.2,3-3.6C254.4,18.3,255.9,19.1,256.7,20.5z"/>
<path class="st7" d="M262.1,17.6c6.7,2.5,11.7,8.5,13.6,10c3.6,3-0.7,37.4-0.9,39.6c-0.2,2.3-8.2,6.4-12,6.6
	c-2.2,0.1-8.3-2-12.2-6.6c-2.8-3.3-0.6-7.2-0.6-7.2c0.1-2.7,0.3-5.4,0.8-8c0.6-2.2-1.8-12.3-2.2-14.5s2.1-15.7,2.1-15.7
	C254.3,17.7,258.1,16.1,262.1,17.6z"/>
<path class="st8" d="M263.2,31.9l-2.7,3.5l0.6,2.1l-3.4,11.2l-2.6-8.2c0,0-4.5-22.9,2.4-23.4s8.4,3,8.4,3L263.2,31.9z"/>
<path class="st6" d="M254.6,20.1c-1.6,2.4-2.9,12-2.9,12l2.1,2.3l-0.5,2.4l4.5,12c0,0-1.8-9.3-3-13.6c-1.2-4.3,0.6-12.7,0.6-12.7
	S256.2,17.7,254.6,20.1z"/>
<path class="st9" d="M266.3,66.6l1.6,0.9l-0.8,3.7c0,0-6.4,5.3-7.3,5.6s-5.3-0.9-4.6-1.8s4.2-4.8,4.2-4.8s1.7-1.1-0.8-0.5
	s-1.1-1.1-1.1-1.1s1.1-0.4,3.1-1.1c3.5-1.4,5.6-0.7,5.6-0.7L266.3,66.6z"/>
<path class="st10" d="M275.4,27.5c2.6,2.7,8.2,28.1,8.2,28.1S268.9,71.5,267,71.5s-3.6-5.9-3.6-5.9l11.4-11.2c0,0-5.2-20.3-5.7-23.6
	c-0.4-1.7,0.4-3.5,1.9-4.3C272.6,26,274.3,26.4,275.4,27.5z"/>
<path class="st10" d="M264.6,18.7c0.9,0.8-1.2,7-3.1,11.7c-1.9,4.7-3.6,18.5-3.6,18.5l4.6-11.1l-1.4-2.5l3-1.2l2.8-14
	C266.8,20.1,263.6,17.9,264.6,18.7z"/>
<path class="st11" d="M254.7,19.7c-0.4,0.9,2.3,7.5,2.3,7.5s7.1-7.3,6.1-8.2c-0.9-0.9-0.5-4.4-0.5-4.4S255.1,18.8,254.7,19.7z"/>
<path class="st12" d="M248.9,5.3c-2.6,3.4,4.1,5.4,4.1,5.4s11.4,6.8,10.9,4.4s1-5.2,1.1-9.2S260,0.1,260,0.1
	C256.1-0.4,251.5,1.9,248.9,5.3z"/>
<path class="st5" d="M250.2,7c0.7-0.9,5.1,0.7,5.1,0.7s-4.9-1.7-1-1c2.9,0.5,5.3,2.5,6.3,5.2c0,0,1.3-2.5,2.5-1.1s-1.3,3.7-1.3,3.7
	s0.3-0.1,0.3,1.9c0,1.7-5.2,4.8-6.8,5.7c-0.3,0.2-0.6,0.2-0.9,0.1l-0.9-0.2c-0.5-0.1-0.8-0.5-0.9-0.9l-3.2-13.3L250.2,7z"/>
<polygon class="st13" points="257.8,27.3 259.1,27.9 257.6,29.9 256.5,28.2 "/>
<path class="st14" d="M264.7,19c0.3-0.2-1.1-1.2-2.1-1.4c-0.1,0,0.7,0.5,0.3,1.1c-1.7,2.3-5.2,8.6-5.2,8.6l1.3,2.6L264.7,19z"/>
<path class="st14" d="M257.8,27.3l-1.6,2.8c-1-2.3-0.6-7.5-0.6-7.5L257.8,27.3z"/>
<polygon class="st13" points="256.7,35.3 257,44.6 257.8,48.6 258.4,44.7 259.1,35.7 257.8,28.6 "/>
<path class="st0" d="M157.8,145.2l44.8-22.4c6.1-3.1,16.2-3.1,22.3,0l74.2,38.1c6.1,3.1,6.1,8.1,0,11.2l-44.8,22.4
	c-6.1,3.1-16.2,3.1-22.3,0l-74.2-38.1C151.6,153.3,151.6,148.2,157.8,145.2z"/>
<path class="st15" d="M239.4,81.8v104.7c2.5,0,5-0.5,7.2-1.5l29.8-14.9c2-1,3-2.3,3-3.6V84h-31.3l-1.5-0.7
	C244.4,82.2,241.9,81.7,239.4,81.8z"/>
<path class="st16" d="M165.7,65.7v82.4c0,1.3,1,2.6,3,3.6l63.5,33.2c2.3,1,4.7,1.5,7.2,1.5V81.8c-2.5,0-5,0.5-7.2,1.5l-1.5,0.7
	L165.7,65.7z"/>
<path class="st17" d="M168.8,62.1l29.8-14.9c4.6-2,9.8-2,14.5,0l63.5,33.2c4,2,4,5.2,0,7.2l-29.8,14.9c-4.6,2-9.8,2-14.4,0
	l-63.5-33.2C164.8,67.4,164.8,64.1,168.8,62.1z"/>
<polygon class="st18" points="206.8,58.3 219.9,64.8 201.3,74.1 188.3,67.6 "/>
<polygon class="st19" points="206.6,58.8 218.8,64.9 217,65.9 204.7,59.8 "/>
<polygon class="st20" points="205.1,61.5 213.4,65.7 212.8,66 204.5,61.8 "/>
<polygon class="st20" points="202.2,61.7 213.4,67.3 212.8,67.6 201.6,62 "/>
<polygon class="st20" points="201,62.3 212.2,67.9 211.6,68.2 200.3,62.6 "/>
<polygon class="st20" points="199.7,62.9 211,68.5 210.3,68.8 199.1,63.2 "/>
<polygon class="st20" points="198.5,63.5 209.7,69.2 209.1,69.5 197.9,63.9 "/>
<polygon class="st20" points="197.3,64.2 208.5,69.8 207.9,70.1 196.7,64.5 "/>
<polygon class="st20" points="196,64.8 207.3,70.4 206.6,70.7 195.4,65.1 "/>
<polygon class="st20" points="191.3,67 195.6,69.1 194.9,69.4 190.7,67.3 "/>
<polygon class="st21" points="188.3,69.6 188.3,67.6 201.3,74.1 201.3,76.1 "/>
<polygon class="st22" points="201.3,74.1 219.9,64.8 219.9,67 201.3,76.1 "/>
<polygon class="st18" points="206.8,55.8 219.9,62.3 201.3,71.5 188.3,65 "/>
<polygon class="st19" points="206.6,56.2 218.8,62.4 217,63.3 204.7,57.2 "/>
<polygon class="st20" points="205.1,59 213.4,63.1 212.8,63.4 204.5,59.3 "/>
<polygon class="st20" points="202.2,59.1 213.4,64.7 212.8,65.1 201.6,59.4 "/>
<polygon class="st20" points="201,59.7 212.2,65.3 211.6,65.7 200.3,60.1 "/>
<polygon class="st20" points="199.7,60.3 211,66 210.3,66.3 199.1,60.7 "/>
<polygon class="st20" points="198.5,61 209.7,66.6 209.1,66.9 197.9,61.3 "/>
<polygon class="st20" points="197.3,61.6 208.5,67.2 207.9,67.5 196.7,61.9 "/>
<polygon class="st20" points="196,62.2 207.3,67.8 206.6,68.1 195.4,62.5 "/>
<polygon class="st20" points="191.3,64.4 195.6,66.5 194.9,66.8 190.7,64.7 "/>
<polygon class="st21" points="188.3,67.1 188.3,65 201.3,71.5 201.3,73.6 "/>
<polygon class="st22" points="201.3,71.5 219.9,62.3 219.9,64.4 201.3,73.6 "/>
<polygon class="st18" points="206.8,53.2 219.9,59.7 201.3,68.9 188.3,62.4 "/>
<polygon class="st19" points="206.6,53.7 218.8,59.8 217,60.7 204.7,54.6 "/>
<polygon class="st20" points="205.1,56.4 213.4,60.5 212.8,60.9 204.5,56.7 "/>
<polygon class="st20" points="202.2,56.5 213.4,62.2 212.8,62.5 201.6,56.9 "/>
<polygon class="st20" points="201,57.2 212.2,62.8 211.6,63.1 200.3,57.5 "/>
<polygon class="st20" points="199.7,57.8 211,63.4 210.3,63.7 199.1,58.1 "/>
<polygon class="st20" points="198.5,58.4 209.7,64 209.1,64.3 197.9,58.7 "/>
<polygon class="st20" points="197.3,59 208.5,64.6 207.9,64.9 196.7,59.3 "/>
<polygon class="st20" points="196,59.6 207.3,65.2 206.6,65.6 195.4,60 "/>
<polygon class="st20" points="191.3,61.8 195.6,64 194.9,64.3 190.7,62.2 "/>
<polygon class="st21" points="188.3,64.5 188.3,62.4 201.3,68.9 201.3,71 "/>
<polygon class="st22" points="201.3,68.9 219.9,59.7 219.9,61.8 201.3,71 "/>
<polygon class="st18" points="208.1,51.1 220,59.5 200.3,65.9 188.4,57.5 "/>
<polygon class="st20" points="206,54 213.6,59.4 212.9,59.6 205.3,54.2 "/>
<polygon class="st20" points="203.1,53.8 213.3,61 212.6,61.2 202.4,54 "/>
<polygon class="st20" points="201.7,54.2 212,61.4 211.3,61.7 201.1,54.4 "/>
<polygon class="st20" points="200.4,54.6 210.7,61.8 210,62.1 199.8,54.8 "/>
<polygon class="st20" points="199.1,55 209.4,62.3 208.7,62.5 198.5,55.2 "/>
<polygon class="st20" points="197.8,55.5 208.1,62.7 207.4,62.9 197.2,55.7 "/>
<polygon class="st20" points="196.5,55.9 206.8,63.1 206.1,63.3 195.8,56.1 "/>
<polygon class="st20" points="191.5,57.3 195.4,60.1 194.7,60.3 190.8,57.6 "/>
<polygon class="st21" points="188.1,59.5 188.4,57.5 200.3,65.9 200,67.9 "/>
<polygon class="st22" points="200.3,65.9 220,59.5 219.7,61.7 200,67.9 "/>
<polygon class="st18" points="224.5,66.8 237.5,73.3 219,82.6 205.9,76.1 "/>
<polygon class="st19" points="224.2,67.3 236.5,73.5 234.6,74.4 222.4,68.3 "/>
<polygon class="st20" points="222.7,70 231.1,74.2 230.4,74.5 222.1,70.3 "/>
<polygon class="st20" points="219.8,70.2 231.1,75.8 230.4,76.1 219.2,70.5 "/>
<polygon class="st20" points="218.6,70.8 229.8,76.4 229.2,76.8 218,71.1 "/>
<polygon class="st20" points="217.4,71.4 228.6,77.1 228,77.4 216.7,71.8 "/>
<polygon class="st20" points="216.1,72.1 227.4,77.7 226.7,78 215.5,72.4 "/>
<polygon class="st20" points="214.9,72.7 226.1,78.3 225.5,78.6 214.3,73 "/>
<polygon class="st20" points="213.7,73.3 224.9,78.9 224.3,79.2 213,73.6 "/>
<polygon class="st20" points="208.9,75.5 213.2,77.6 212.6,77.9 208.3,75.8 "/>
<polygon class="st21" points="205.9,78.1 205.9,76.1 219,82.6 219,84.6 "/>
<polygon class="st22" points="219,82.6 237.5,73.3 237.5,75.5 219,84.6 "/>
<polygon class="st18" points="224.5,64.3 237.5,70.8 219,80 205.9,73.5 "/>
<polygon class="st19" points="224.2,64.8 236.5,70.9 234.6,71.8 222.4,65.7 "/>
<polygon class="st20" points="222.7,67.5 231.1,71.6 230.4,71.9 222.1,67.8 "/>
<polygon class="st20" points="219.8,67.6 231.1,73.2 230.4,73.6 219.2,67.9 "/>
<polygon class="st20" points="218.6,68.2 229.8,73.9 229.2,74.2 218,68.6 "/>
<polygon class="st20" points="217.4,68.9 228.6,74.5 228,74.8 216.7,69.2 "/>
<polygon class="st20" points="216.1,69.5 227.4,75.1 226.7,75.4 215.5,69.8 "/>
<polygon class="st20" points="214.9,70.1 226.1,75.7 225.5,76 214.3,70.4 "/>
<polygon class="st20" points="213.7,70.7 224.9,76.3 224.3,76.6 213,71 "/>
<polygon class="st20" points="208.9,72.9 213.2,75.1 212.6,75.4 208.3,73.2 "/>
<polygon class="st21" points="205.9,75.6 205.9,73.5 219,80 219,82.1 "/>
<polygon class="st22" points="219,80 237.5,70.8 237.5,72.9 219,82.1 "/>
<polygon class="st18" points="224.5,61.7 237.5,68.2 219,77.5 205.9,70.9 "/>
<polygon class="st19" points="224.2,62.2 236.5,68.3 234.6,69.2 222.4,63.1 "/>
<polygon class="st20" points="222.7,64.9 231.1,69.1 230.4,69.4 222.1,65.2 "/>
<polygon class="st20" points="219.8,65.1 231.1,70.7 230.4,71 219.2,65.4 "/>
<polygon class="st20" points="218.6,65.7 229.8,71.3 229.2,71.6 218,66 "/>
<polygon class="st20" points="217.4,66.3 228.6,71.9 228,72.2 216.7,66.6 "/>
<polygon class="st20" points="216.1,66.9 227.4,72.5 226.7,72.8 215.5,67.2 "/>
<polygon class="st20" points="214.9,67.5 226.1,73.1 225.5,73.4 214.3,67.8 "/>
<polygon class="st20" points="213.7,68.1 224.9,73.8 224.3,74.1 213,68.4 "/>
<polygon class="st20" points="208.9,70.3 213.2,72.5 212.6,72.8 208.3,70.7 "/>
<polygon class="st21" points="205.9,73 205.9,70.9 219,77.5 219,79.5 "/>
<polygon class="st22" points="219,77.4 237.5,68.2 237.5,70.3 219,79.5 "/>
<polygon class="st18" points="225.8,59.6 237.7,68 218,74.4 206.1,66 "/>
<polygon class="st20" points="223.6,62.5 231.2,67.9 230.5,68.1 222.9,62.8 "/>
<polygon class="st20" points="220.7,62.3 230.9,69.5 230.3,69.7 220,62.5 "/>
<polygon class="st20" points="219.4,62.7 229.6,69.9 229,70.2 218.7,62.9 "/>
<polygon class="st20" points="218.1,63.1 228.3,70.4 227.7,70.6 217.4,63.3 "/>
<polygon class="st20" points="216.8,63.5 227,70.8 226.3,71 216.1,63.8 "/>
<polygon class="st20" points="215.5,64 225.7,71.2 225,71.4 214.8,64.2 "/>
<polygon class="st20" points="214.1,64.4 224.4,71.6 223.7,71.8 213.5,64.6 "/>
<polygon class="st20" points="209.1,65.8 213,68.6 212.3,68.8 208.5,66.1 "/>
<polygon class="st21" points="205.8,68 206.1,66 218,74.4 217.7,76.4 "/>
<polygon class="st22" points="218,74.4 237.7,68 237.3,70.2 217.7,76.4 "/>
<polygon class="st18" points="243,75.7 256,82.2 237.5,91.5 224.4,85 "/>
<polygon class="st19" points="242.7,76.2 255,82.3 253.1,83.3 240.9,77.1 "/>
<polygon class="st20" points="241.2,78.9 249.6,83.1 248.9,83.4 240.6,79.2 "/>
<polygon class="st20" points="238.3,79.1 249.6,84.7 248.9,85 237.7,79.4 "/>
<polygon class="st20" points="237.1,79.7 248.3,85.3 247.7,85.6 236.5,80 "/>
<polygon class="st20" points="235.9,80.3 247.1,85.9 246.5,86.2 235.2,80.6 "/>
<polygon class="st20" points="234.6,80.9 245.9,86.5 245.2,86.8 234,81.2 "/>
<polygon class="st20" points="233.4,81.5 244.6,87.2 244,87.5 232.8,81.8 "/>
<polygon class="st20" points="232.2,82.2 243.4,87.8 242.8,88.1 231.5,82.5 "/>
<polygon class="st20" points="227.4,84.4 231.7,86.5 231.1,86.8 226.8,84.7 "/>
<polygon class="st21" points="224.4,87 224.4,85 237.5,91.5 237.5,93.5 "/>
<polygon class="st22" points="237.5,91.5 256,82.2 256,84.4 237.5,93.5 "/>
<polygon class="st18" points="243,73.1 256,79.7 237.5,88.9 224.4,82.4 "/>
<polygon class="st19" points="242.7,73.6 255,79.8 253.1,80.7 240.9,74.6 "/>
<polygon class="st20" points="241.2,76.3 249.6,80.5 248.9,80.8 240.6,76.7 "/>
<polygon class="st20" points="238.3,76.5 249.6,82.1 248.9,82.4 237.7,76.8 "/>
<polygon class="st20" points="237.1,77.1 248.3,82.7 247.7,83.1 236.5,77.4 "/>
<polygon class="st20" points="235.9,77.7 247.1,83.3 246.5,83.7 235.2,78.1 "/>
<polygon class="st20" points="234.6,78.3 245.9,84 245.2,84.3 234,78.7 "/>
<polygon class="st20" points="233.4,79 244.6,84.6 244,84.9 232.8,79.3 "/>
<polygon class="st20" points="232.2,79.6 243.4,85.2 242.8,85.5 231.5,79.9 "/>
<polygon class="st20" points="227.4,81.8 231.7,83.9 231.1,84.2 226.8,82.1 "/>
<polygon class="st21" points="224.4,84.4 224.4,82.4 237.5,88.9 237.5,90.9 "/>
<polygon class="st22" points="237.5,88.9 256,79.6 256,81.8 237.5,90.9 "/>
<polygon class="st18" points="243,70.6 256,77.1 237.5,86.3 224.4,79.8 "/>
<polygon class="st19" points="242.7,71.1 255,77.2 253.1,78.1 240.9,72 "/>
<polygon class="st20" points="241.2,73.8 249.6,77.9 248.9,78.2 240.6,74.1 "/>
<polygon class="st20" points="238.3,73.9 249.6,79.6 248.9,79.9 237.7,74.2 "/>
<polygon class="st20" points="237.1,74.6 248.3,80.2 247.7,80.5 236.5,74.9 "/>
<polygon class="st20" points="235.9,75.2 247.1,80.8 246.5,81.1 235.2,75.5 "/>
<polygon class="st20" points="234.6,75.8 245.9,81.4 245.2,81.7 234,76.1 "/>
<polygon class="st20" points="233.4,76.4 244.6,82 244,82.3 232.8,76.7 "/>
<polygon class="st20" points="232.2,77 243.4,82.6 242.8,82.9 231.5,77.3 "/>
<polygon class="st20" points="227.4,79.2 231.7,81.3 231.1,81.7 226.8,79.5 "/>
<polygon class="st21" points="224.4,81.9 224.4,79.8 237.5,86.3 237.5,88.4 "/>
<polygon class="st22" points="237.5,86.3 256,77.1 256,79.2 237.5,88.4 "/>
<polygon class="st18" points="244.3,68.5 256.2,76.9 236.5,83.3 224.6,74.9 "/>
<polygon class="st20" points="242.1,71.4 249.7,76.8 249,77 241.4,71.6 "/>
<polygon class="st20" points="239.2,71.1 249.4,78.4 248.8,78.6 238.5,71.4 "/>
<polygon class="st20" points="237.9,71.6 248.1,78.8 247.5,79 237.2,71.8 "/>
<polygon class="st20" points="236.6,72 246.8,79.2 246.2,79.4 235.9,72.2 "/>
<polygon class="st20" points="235.3,72.4 245.5,79.7 244.8,79.9 234.6,72.6 "/>
<polygon class="st20" points="234,72.8 244.2,80.1 243.5,80.3 233.3,73.1 "/>
<polygon class="st20" points="232.6,73.3 242.9,80.5 242.2,80.7 232,73.5 "/>
<polygon class="st20" points="227.6,74.7 231.5,77.5 230.8,77.7 227,74.9 "/>
<polygon class="st21" points="224.3,76.9 224.6,74.9 236.5,83.3 236.2,85.3 "/>
<polygon class="st22" points="236.5,83.3 256.2,76.9 255.8,79 236.2,85.3 "/>
<path class="st0" d="M287.5,220c-8.9,4.4-8.9,11.7,0,16.1s23.3,4.4,32.2,0s8.9-11.7,0-16.1C310.9,215.6,296.4,215.6,287.5,220z"/>
<path class="st23" d="M292.7,226.1c0,0-6.4-0.4-9.8,1.3c-3.4,1.7,10.8,6.7,10.8,6.7l1.3-0.4c0,0-0.2,0.5,0.2,0.6
	c7.2,3.1,7.7-1.5,7.7-1.5l-0.2-3.3L292.7,226.1z"/>
<path class="st24" d="M292.7,225.6c0,0-6.4-0.4-9.8,1.3c-3.4,1.7,10.8,6.7,10.8,6.7l1.3-0.4c0,0-0.2,0.5,0.2,0.6
	c7.2,3.1,7.7-1.5,7.7-1.5l-0.2-3.3L292.7,225.6z"/>
<path class="st25" d="M321.5,171.3c0,0,8-13.1,7.6-17.5c-0.5-4.5-10-23.6-10-23.6C305.8,129.4,321.5,171.3,321.5,171.3z"/>
<path class="st26" d="M304.1,135.9l2.4-6c0,0,0.4-1.2-0.2-1.2c-6,0.8-4.7-4.2-5-7.2c-0.1-2.8,0-5.5,0.2-8.2c0.1-0.5,1.3-4.1,7.1-2.8
	c5.8,1.3,6.1,11.6,5.8,14.5s-0.6,5.9-0.6,5.9L304.1,135.9z"/>
<path class="st23" d="M311.3,220.5c0,0-6.3-0.7-9.8,0.8c-3.5,1.5,10.4,7.3,10.4,7.3l1.3-0.3c0,0-0.2,0.5,0.2,0.7c7,3.5,7.8-1,7.8-1
	v-3.3L311.3,220.5z"/>
<path class="st24" d="M311.3,220c0,0-6.3-0.7-9.8,0.8c-3.5,1.5,10.4,7.3,10.4,7.3l1.3-0.3c0,0-0.2,0.5,0.2,0.7c7,3.5,7.8-1,7.8-1
	v-3.3L311.3,220z"/>
<path class="st27" d="M309.6,176.5l-1,24l0,0l1.3,18.9l-0.9,1.1c0,0.3,0.4,1.5,4.5,4.2c2.6,1.8,6.1,1.6,8.5-0.4
	c0.1-0.1,0.1-0.2,0.1-0.2l-1.6-24.2l0,0l0.5-25.6L309.6,176.5z"/>
<path class="st28" d="M299.9,176.9l-4.6,25.2l-4.2,21.8l-1.5,2.2c7.5,8.6,13.8,3.8,13.8,3.8s3.5-22.6,4.6-26.3
	c1.2-3.7,9.5-27.3,9.5-27.3L299.9,176.9z"/>
<path class="st29" d="M300.1,110.1c-0.2,1.2-0.2,2.4,0.2,3.5c0.4,1.3,3.4,7.7,3.4,7.7s-0.6-0.8-0.2-3c0.4-2.1,2.9,3.8,2.9,3.8
	l2.3,4.2l5.4,1.4l0.4-1.4c1-2.4,2.1-4.8,3.4-7c0.9-1.4,0.8-3.2,0.8-4.5c0-1.7,0.4-2.5-3.3-6.3c-3.9-3.9-9.4-1.7-9.4-1.7
	C300.8,108.4,300.5,109.4,300.1,110.1z"/>
<path class="st30" d="M294.3,207l17-10.1c-0.1-0.1-0.2-0.2-0.3-0.2l-24.1-12c-0.1-0.1-0.2-0.1-0.3-0.1c-0.4,0-0.7,0.3-0.7,0.7v17.2
	c0,0.3,0.1,0.5,0.4,0.6L294.3,207z"/>
<path class="st31" d="M294.3,207l16.1,8c0.1,0.1,0.2,0.1,0.3,0.1c0.4,0,0.7-0.3,0.7-0.7v-17.2c0-0.1,0-0.3-0.1-0.4L294.3,207z"/>
<polygon class="st30" points="311.3,196.9 306.4,199.8 281.3,187.2 286.3,184.6 "/>
<polygon class="st31" points="306.3,199.4 311.3,196.9 311.1,215.1 306,217.6 "/>
<path class="st32" d="M308.8,216.3c0.2-0.1,0.3-0.3,0.3-0.6v-17.1c0-0.3-0.1-0.5-0.4-0.6l-24.1-12c-0.3-0.2-0.7-0.2-1,0l24.7,12.3
	c0.2,0.1,0.4,0.4,0.4,0.6L308.8,216.3z"/>
<path class="st33" d="M306.8,195.4H306c-0.3-0.1-0.6-0.1-0.9,0l-2.5,0.9c-0.2,0.1-0.1,0.6,0.1,0.8l0.7,0.3c0.3,0.1,0.6,0.1,0.9,0
	l2.4-1.2C306.9,196.1,307.1,195.6,306.8,195.4z"/>
<path class="st34" d="M306.7,195.4L306,195c-0.3-0.1-0.6-0.1-0.9,0l-2.4,1.2c-0.3,0.1-0.3,0.3,0,0.5l0.7,0.3c0.3,0.1,0.6,0.1,0.9,0
	l2.4-1.2C306.9,195.7,306.9,195.5,306.7,195.4z"/>
<path class="st33" d="M289.1,186.3h-0.8c-0.3-0.1-0.6-0.1-0.9,0l-2.5,0.9c-0.2,0.1-0.1,0.6,0.1,0.8l0.7,0.3c0.3,0.1,0.6,0.1,0.9,0
	l2.4-1.2C289.3,187,289.4,186.4,289.1,186.3z"/>
<path class="st34" d="M289,186.2l-0.7-0.3c-0.3-0.1-0.6-0.1-0.9,0l-2.4,1.2c-0.3,0.1-0.3,0.3,0,0.5l0.7,0.3c0.3,0.1,0.6,0.1,0.9,0
	l2.4-1.2C289.3,186.6,289.3,186.4,289,186.2z"/>
<path class="st33" d="M299.7,192.7h-0.4c-0.2-0.1-0.3-0.1-0.5,0l-1.3,0.5c-0.1,0.1-0.1,0.3,0.1,0.4l0.4,0.2c0.2,0.1,0.3,0.1,0.5,0
	l1.2-0.6C299.8,193,299.9,192.8,299.7,192.7z"/>
<path class="st34" d="M299.7,192.7l-0.4-0.2c-0.2-0.1-0.3-0.1-0.5,0l-1.2,0.6c-0.1,0.1-0.1,0.2,0,0.2l0.4,0.2c0.2,0.1,0.3,0.1,0.5,0
	l1.2-0.6C299.8,192.8,299.8,192.7,299.7,192.7z"/>
<path class="st33" d="M294.3,189.5h-0.4c-0.2-0.1-0.3-0.1-0.5,0L292,190c-0.1,0.1-0.1,0.3,0.1,0.4l0.4,0.2c0.2,0.1,0.3,0.1,0.5,0
	l1.2-0.6C294.3,189.9,294.4,189.6,294.3,189.5z"/>
<path class="st34" d="M294.2,189.5l-0.4-0.2c-0.2-0.1-0.3-0.1-0.5,0l-1.2,0.6c-0.1,0.1-0.1,0.2,0,0.2l0.4,0.2c0.2,0.1,0.3,0.1,0.5,0
	l1.2-0.6C294.3,189.7,294.3,189.5,294.2,189.5z"/>
<path class="st31" d="M298.3,193v-2.4l-4.9-2.4v1.6c0,0.2-0.1,0.3-0.3,0.3l0,0c-0.2,0-0.3-0.1-0.3-0.3v-2.1c0,0,0-0.1,0-0.1
	c0.1-0.2,0.3-0.2,0.4-0.1l5.5,2.7c0.1,0.1,0.2,0.2,0.2,0.3v2.6c0,0.2-0.1,0.3-0.3,0.3C298.5,193.3,298.3,193.2,298.3,193z"/>
<path class="st32" d="M280.9,205v-17.2c0-0.1,0-0.2,0.1-0.3c0.2-0.3,0.6-0.5,0.9-0.3l24.1,12c0.2,0.1,0.4,0.4,0.4,0.6V217
	c0,0.1,0,0.2-0.1,0.3c-0.2,0.3-0.6,0.5-0.9,0.3l-24.1-12C281.1,205.5,280.9,205.2,280.9,205z"/>
<path class="st35" d="M318.8,129.8c-1.8-2.1-4.5-1.1-7.5,0.3c-2.9,1.3-5.7,2.9-8.3,4.6c-8.3,5.4-5.5,23.3-5.5,23.3l-0.2,18.9
	c0,0-2.8,12.8,4.1,14.9c6.8,2.2,21.1-0.9,22.4-2.8c1.3-1.9-2.2-29.9-2-38.6C321.7,150.5,322,133.5,318.8,129.8z"/>
<path class="st36" d="M318.7,131.1"/>
<path class="st26" d="M294.6,175.9l-2.3,5.9c0,0,1,9.9,2.1,9.9c1.3,0,1.6-5.9,2.2-6.7c0.5-0.8,1-1.6,1.4-2.5l2-3.2L294.6,175.9z"/>
<path class="st37" d="M297.8,145.7l-0.4,15.2l-5.5,19.4c1,1.1,2.2,2,3.5,2.6c2,0.9,4.2-0.5,4.2-0.5l6.8-21.5c0,0,1.3-16.4,0.4-19.6
	s-2.3-4-4.9-3.5C297.8,138.7,297.8,145.7,297.8,145.7z"/>
<path class="st0" d="M151.7,168.1c-8.6,4.3-8.6,11.2,0,15.5s22.5,4.3,31,0s8.6-11.2,0-15.5C174.2,163.8,160.3,163.8,151.7,168.1z"/>
<path class="st38" d="M166.8,169.3c-0.1,1.3-0.1,2.7-0.1,4l-0.8,4.9c0,0,1.1,0.5,1.3-0.1s0.6-4.7,1.7-4.5s1.8,4.1,3.1,5.3
	s6.9,1.2,7.4,0.4s-1.6-4-2.8-5.6s-4.2-6.3-4.2-6.3l-4.6-1C167.4,167.5,167.1,168.4,166.8,169.3z"/>
<path class="st39" d="M160,174.5c0.3,1.4,0.6,2.8,1.1,4.1l0.5,4.7c0,0,1.3,0.2,1.3-0.5s-0.7-4.4,0.5-4.5s3,3.6,4.8,4.5
	s7.4-0.9,7.7-1.8s-2.8-3.6-4.5-4.9s-4.7-5.4-4.7-5.4l-6.5,0.6C160.1,172.4,160,173.4,160,174.5z"/>
<path class="st40" d="M153.5,128.8c0.2,3.2,2.8,12,3.1,16.9c0.2,3.2-1.1,5,0.5,11c1.8,6.5,2.7,12.6,3.2,14.5s4.5,4.8,6.1,6.1
	s5.7-0.2,5.7-0.2s-5.4-3.9-5.5-5.7s-2.2-20.9-2-24.1s-0.3-19.5-0.3-19.5L153.5,128.8z"/>
<path class="st41" d="M175.3,124.6c2,1.9,6.5,14.2,5.8,16.2s-7.4,20.6-8.6,26.7l3.2,6.6c-1.6,6.7-7.9-6.6-7.9-6.6l0.4-2.2
	c0,0,0.6-11.9,1.4-15.7s3.1-5.9,3.4-8.1s-8.2-12.3-8.2-12.3L175.3,124.6z"/>
<path class="st42" d="M172.2,58.5c2.8,0.7,4.8,3.8,4.2,4.3c-1,0.8-4.2,7.2-3.9,8.3c0.9,2.3,1.9,4.5,3,6.7l-4.9,1.1l-7.6-8l0.1-4.4
	c0,0,0.5-0.3,1.2-0.7c1.2-0.7,2.3-1.6,3.2-2.6c0.9-1.3-0.7-3.4-0.7-3.4C167.4,59.7,170.3,58,172.2,58.5z"/>
<path class="st40" d="M168.7,55c-1.2,2.5,4.9,4.4,4.6,6.5c0.8,2,6,3.9,6.7,3.4s0.6-1.1,1-2.1c0-0.7,0-1.4,0-2.1c0,0,1.2-0.3,1.4-0.5
	c-0.3-1-0.7-2-1.1-2.9c0.2-0.5,0.4-1.1,0.4-1.6c0.1-1,0.1-2.1,0-3.1c0-1.3-2.2-1.2-4.7-2.5C172.3,47.5,169.9,52.5,168.7,55z"/>
<path class="st43" d="M154.9,77c0,0,3.9-7.1,4.6-8.2s4.3-2.3,5.3-3.2c1-0.9,0.3-2.5,0.1-3.9s0.7-1.6,0.7-1.6l1.5,0.3
	c2-0.3,4-0.7,5.9-1.3c-0.1-0.1-0.1-0.1-0.2-0.2c-1-1.1-0.9-2.8,0.2-3.8c0.5-0.6,1.1-0.2,1.6,1.2c0.8,0.2,3.8-1.2,3.8-1.2l-2,1.4
	c1.2-0.1,5.8-2.9,6.3-4.1s-2-3.5-3.5-4.7s-5.6-2.1-5.6-2.1c-8,0-9.5,6.8-9.9,8s1.4,4.6,1.4,4.6l-0.4,0.9c0,0-0.5,0.9-1.2,1
	s-5.3,6.2-6.5,8S154.9,77,154.9,77z"/>
<path class="st44" d="M154.5,127c-1,1.8-0.8,13.3-0.8,13.3s7.9,2.2,11.1,2.7s17.8-6,17.8-6l-2.2-7.6
	C180.2,129.4,155.5,125.2,154.5,127z"/>
<path class="st45" d="M163.7,60.1l1.9,1.4l1-0.8c-0.2-0.8-0.7-1.6-1.4-2.1L163.7,60.1z"/>
<path class="st46" d="M151.6,133.1c3.2,2.9,7,4.9,11.2,5.9c3.1,0.7,7.6-0.8,11.5-2.5c0.2-0.1,0.2-3.8,0.4-3.9s0.6,3.4,0.8,3.4
	c2.2-1,4.3-2.2,6.3-3.4c0,0-3.7-37.3-3.5-39.5s2.2-6.8,2.6-9.3s-4-11-4-11l-3.9-3.4c0,0-0.4,0.1-0.4,1.8s2.5,5.5,2.5,5.5l-2,0.5
	c0,0-4.4-11.5-9.8-10.6s-6.8,6.9-6.8,6.9l0.2,8.1l2,17.1l-4.5,12.5L151.6,133.1z"/>
<path class="st47" d="M175,76.7c0,0,1.9,5.5,1.8,8.1s-2.7,25.4-2.7,25.4s1.5-21.5,1.4-24s-2.5-9-2.5-9L175,76.7z"/>
<path class="st40" d="M169.4,85.8c1.1,1.5,2,3.1,2.9,4.7c0.7,0.1,14.9-5.4,15.9-5.8s6.8-0.6,7.5-0.7c1.5,0.1,2.9,0.5,4.3,1.2
	c0.6,0.5-1.3,2.8-2.2,3s-1.6-0.4-4.1,0.1c-1.7,0.2-3.4,0.3-5.1,0.1c-0.8,0.1-17.6,9.7-18.7,9.2s-6.1-8.4-6.1-8.4
	C164.2,87.1,169.4,85.8,169.4,85.8z"/>
<path class="st48" d="M162.4,71.3c7.5-0.9,9.4,18,9.4,18l-2.6-0.2l-1.5-1.4c0,0,0.9,1.6,0.1,1.6s-6,2.8-6,2.8
	C158.7,79.7,157.5,75.1,162.4,71.3z"/>
<path class="st0" d="M162.1,220.2c9.5,4.7,5.1,14.5-9.5,21.8s-34.1,9.5-43.6,4.8s-5.1-14.5,9.5-21.8
	C133.1,217.7,152.6,215.5,162.1,220.2z"/>
<polygon class="st49" points="146.8,178 167.1,169.7 170.6,171.7 166.1,183.4 149.2,193.8 145.8,191.8 "/>
<polygon class="st50" points="150.2,180 170.6,171.7 169.5,185.4 149.2,193.8 "/>
<polygon class="st51" points="158,180.9 161.9,179.3 161.8,181 157.8,182.6 "/>
<path class="st52" d="M165.2,172.4l0.5-0.7c-0.1-3.5-3.1-5.2-7.1-3.5s-7.4,5.9-8.1,9.8l0.5,0.3l0.5-0.7c0.9-3.7,3.5-6.8,7-8.4
	c3.4-1.4,6,0,6.1,3L165.2,172.4z"/>
<path class="st53" d="M166.2,172c-0.1-3.5-3.1-5.2-7.1-3.5s-7.4,5.9-8.1,9.8l1-0.4c0.9-3.7,3.5-6.8,7-8.4c3.4-1.4,6,0,6.1,3
	L166.2,172z"/>
<path class="st54" d="M126.8,165.9l15.1,29.8c-0.4,3.4-0.5,6.9-0.2,10.3c0.5,4.7,4.4,18.1,4.4,18.1l5.5,1.4l-9.4,5.3l-0.8-5.4
	c0,0-7.3-16.1-7.7-17.6s-0.1-10.2-0.1-10.2l-13.5-19l-0.8-4.6"/>
<path class="st55" d="M129,173.7c0.3,3.9-6.3,27.2-6.3,27.2l-6,11.9l-6.7,21.6l8.4,1.6l-1.6-2.1c0,0,3.2-4.8,10.5-19.4
	c5.1-10.3,5-15.1,6.3-16.7c6-7.1,9.1-31.9,9.1-31.9S128.8,169.8,129,173.7z"/>
<path class="st54" d="M127.6,128.1l-9.2,19c0.8,0.7,8-7,8-7l6.3,4.9l-10.4,5.4c0,0-7.3,4.1-8.3,2.8s-1.1-4.3,0.5-10.4
	c5.3-19.5,10.4-19.7,10.4-19.7C129.7,123.3,127.6,128.1,127.6,128.1z"/>
<path class="st55" d="M124,123c0,0,3.6-9.5,3.7-15.2s8.7-1.4,9.6-1.2s2,3.8,1.9,6.6s-2.2,8.4-2.8,8.6s-2.2-0.8-2.2-0.8l-1.6,1.6
	L124,123z"/>
<path class="st56" d="M138.1,123.8c3.8,1.4,6.1,13.2,6.1,13.2l-4.1,12.9c0,0,0.2,2.4,2.7,15.9c-4.7,3-12.5,1.4-15.9,1
	c-8.8-1.1-8.2-2.4-8.2-2.4l4.8-11.8c0,0-4.6-16.4-4-17.6s2.3-10.5,2.3-10.5l4.5-2.2l8.2,0.1l1.8,1.1
	C136.2,123.5,134.3,122.4,138.1,123.8z"/>
<path class="st55" d="M140,124.7c-6.5-3.3-6.6-0.4-7.7,4.1s6.2,6.3,6.2,6.3l4.5,15.4l12.1,14.8c0,0,5.7,10.3,6.8,7.4
	s-2.1-8.9-2.1-8.9l-12-17.8l-3.7-16.2C143.6,127.7,142.1,125.7,140,124.7z"/>
<path class="st57" d="M149.5,225.1l3-0.8c0,0,1.4-0.4,1.5,3.3s-4.5,3.9-4.5,3.9c-0.4,1.4-0.9,2.8-1.7,4c-1,1.2-7.1-0.5-7.1-0.5
	l0.9-5.1l0.2-2.3c0,0,4.4,1.2,6.1,0.3s-1.1-3.9-1.1-3.9L149.5,225.1z"/>
<path class="st58" d="M110.1,232.4l-3.8,7.4l5.5,2c0.7-0.3,1.5-0.5,2.3-0.5c1.1,0,2.1,1,4.3,1.3s6.1-2,7.8-2.9s0.1-2.6,0.1-2.6
	l-4-0.9l-4.6-3.5C112.1,236.8,110.1,232.4,110.1,232.4z"/>
<path class="st59" d="M126.6,101.6c-2.1,1-1.2,14.2-0.9,16.2s4.4,3.4,5.9,2.2s3.7-3.2,2.8-6.2s2.7-2.6,2.7-2.6
	c0.3,0.1,0.6,0.2,1,0.2c1-0.1,1.8-1,1.7-2c0.1-2.8-5.4-8.1-5.6-8.1C130.3,99.9,128.7,100.5,126.6,101.6z"/>
<path class="st60" d="M130.8,114.1c0,2.8-3.2,5.6-3.3,9s-7.2,8.5-7.2,8.5l3.1-6.1c0,0-7.4,8.5-6.2,7.4s5.1-20.5,5.2-30.6
	s9.4-4.5,11.8-4.5s-0.1,7.5-0.1,7.5C133.3,108.9,130.9,110.4,130.8,114.1z"/>
<path class="st58" d="M142.8,165.9c0,0,3.2,30.4-1.3,34.6s-21.5-0.3-21.5-0.3s0.9-2.4-3.3-14.1s1.9-21.7,1.9-21.7
	C137.4,168.9,142.8,165.9,142.8,165.9z"/>
<path class="st0" d="M213.4,224.8c10.5,5.3,10.5,13.8,0,19.1s-27.6,5.3-38.2,0s-10.5-13.8,0-19.1S202.9,219.6,213.4,224.8z"/>
<path class="st38" d="M196.4,229.5c0,1.3,0.1,2.6,0.2,3.9l-0.4,4.8c0,0,1.1,0.4,1.3-0.2s0.2-4.6,1.3-4.4s2.1,3.8,3.4,4.9
	s6.7,0.6,7.2-0.1s-1.8-3.7-3.1-5.2s-4.6-5.8-4.6-5.8l-4.5-0.6C196.9,227.6,196.6,228.5,196.4,229.5z"/>
<path class="st39" d="M190.2,235c0.4,1.3,0.8,2.7,1.4,3.9l0.8,4.5c0,0,1.3,0.1,1.2-0.5s-1-4.2,0.2-4.4s3.2,3.3,4.9,4s7-1.4,7.3-2.3
	s-2.9-3.3-4.7-4.4s-4.9-4.9-4.9-4.9l-6.2,1C190.2,233,190.2,234,190.2,235z"/>
<path class="st40" d="M180.6,191.4c0.4,3.1,3.6,11.4,4.2,16.1c0.4,3.1-0.7,5,1.4,10.6c2.3,6.2,3.5,12,4.2,13.8s4.8,4.3,6.4,5.4
	s5.5-0.6,5.5-0.6s-5.4-3.4-5.7-5.1s-3.7-20-3.8-23.2s-1.7-18.8-1.7-18.8L180.6,191.4z"/>
<path class="st41" d="M201.2,185.7c2.1,1.6,7.4,13.2,6.8,15.2s-5.6,20.4-6.3,26.4l3.6,6.2c-1,6.6-8.1-5.8-8.1-5.8l0.2-2.1
	c0,0-0.3-11.5,0.2-15.2s2.6-5.9,2.7-8s-8.8-11.2-8.8-11.2L201.2,185.7z"/>
<path class="st42" d="M191.3,121.7c2.8,0.5,4.9,3.3,4.4,3.9c-0.9,0.8-1.4,7.6-1.1,8.7c1,2.1,2.2,4.2,3.4,6.2l-4.7,1.5l-7.9-7.2
	l-0.2-4.2c0,0,0.5-0.3,1.1-0.8c1-0.8,0.8-2.2,0.9-3.2c0.2-2.7-0.9-3.3-0.9-3.3C186.8,123.1,189.4,121.4,191.3,121.7z"/>
<path class="st40" d="M187.7,120.2c-1.1,2.7,5.5,4.3,5.4,6.5c1,2.1,6.7,3.6,7.3,3.1s0.6-1.2,0.9-2.3c0-0.7,0-1.5-0.1-2.2
	c0,0,1.3-0.3,1.4-0.7s-1.4-3-1.4-3c0.2-0.6,0.3-1.1,0.3-1.7c0-1.1-0.1-2.2-0.2-3.2c-0.2-1.3-2.4-1.1-5.2-2.2
	C190.9,112,188.8,117.5,187.7,120.2z"/>
<path class="st61" d="M175.1,144.4c0,0,3.5-7.8,4.2-9s4.3-2.8,5.3-3.8s0.1-2.6-0.2-4.1s0.6-1.7,0.6-1.7l1.6,0.1
	c2.1-0.5,4.1-1.1,6.1-1.9c-0.1-0.1-0.1-0.1-0.2-0.2c-1.2-1.1-1.2-2.9-0.2-4.1c0.5-0.7,1.1-0.4,1.8,1.1c0.8,0.2,3.9-1.6,3.9-1.6
	l-2,1.7c1.2-0.2,5.8-3.5,6.3-4.9s-2.4-3.6-4.1-4.7s-6-1.8-6-1.8c-8.4,0.7-9.4,7.9-9.7,9.3s1.9,4.7,1.9,4.7l-0.4,1c0,0-0.4,1-1.2,1.1
	s-5.1,7-6.2,9C175.6,136.8,175.1,144.4,175.1,144.4z"/>
<path class="st44" d="M181.3,189.5c-0.9,1.8,0.2,12.9,0.2,12.9s7.8,1.5,10.9,1.8s16.7-7.1,16.7-7.1l-2.7-7.2
	C206.4,189.9,182.1,187.8,181.3,189.5z"/>
<path class="st45" d="M183,125.9l2.1,1.3l0.9-0.9c-0.2-1.1-1.7-2.1-1.7-2.1L183,125.9z"/>
<path class="st62" d="M179,195.7c3.3,2.5,7.2,4.2,11.2,4.9c3.1,0.4,7.3-1.3,10.9-3.2c0.2-0.1,0-3.7,0.1-3.8s0.9,3.3,1,3.2
	c2-1.2,4-2.4,5.9-3.8c0,0-6.3-35.8-6.4-37.9s1.6-6.7,1.8-9.2s-4.7-10.3-4.7-10.3l-4-3c0,0-0.4,0.2-0.2,1.8s2.8,5.1,2.8,5.1l-1.9,0.6
	c0,0-5.1-10.8-10.3-9.5s-6.1,7.2-6.1,7.2l0.8,7.8l3.3,16.3l-3.5,12.4L179,195.7z"/>
<path class="st47" d="M197.4,139.5c0,0,2.2,5.1,2.4,7.7s-0.7,24.8-0.7,24.8s-0.2-20.9-0.5-23.3s-3.1-8.5-3.1-8.5L197.4,139.5z"/>
<path class="st40" d="M189.5,141.9c0.9,0.8-0.2,32.5,0.1,33.2s1.4,10.8,0.8,10.5s-2.6-4-2.8-4.7s-0.9-5.4-1-6.4s-2.1-26.4-2.4-27.7
	c0.7-1.4,1.1-2.9,1.9-4.3c0.3-0.5,0.7-1,1-1.5C187.8,141.2,188.7,141.5,189.5,141.9z"/>
<path class="st48" d="M184.5,135.2c7.3-0.3,7.7,18.1,7.7,18.1l-2.5-0.4l-1.4-1.5c0,0,0.7,1.6,0,1.6c-2,0.6-4,1.4-6,2.3
	C180.3,143,179.4,138.4,184.5,135.2z"/>
<path class="st0" d="M49.3,114.4c-3.3,2.6,1.2,10.3,3.2,10.8s4.3,8.2,6.3,9.5s8.9,1.1,12-0.8s-0.7-7.5,1.1-12.4s11.8-3.4,14.8-7.1
	s-24.5-5-24.5-5S52.6,111.8,49.3,114.4z"/>
<path class="st63" d="M86.9,58.4c0,0-0.7,2.2,2.1,6.6c4.1-2.1,4.4-4.4,4.4-4.4L86.9,58.4z"/>
<path class="st31" d="M61.6,71.2L65.2,94l-8.5,13.6l7.4,11c0,0,12.8-22.2,14.1-26.2s-2.4-21.1-2.4-21.1L61.6,71.2z"/>
<path class="st64" d="M62.5,116.9c-0.1,4.4,4.3,11.2,5.8,16.2c0,0,0,0,0,0.1c0.1,0.3-0.2,0.7-0.5,0.7c-2.9,0.4-6.1-1.9-7.5-3.2
	s-2.9-4.5-3.5-5.5c-0.7-0.9-1.5-1.8-2.4-2.5c-0.7-0.6,0.4-4.7,0.4-4.7S62.6,112.3,62.5,116.9z"/>
<path class="st64" d="M62.3,109.5c-1.7,4.1-0.2,12-0.7,17.2c0,0,0,0.1,0,0.1c-0.1,0.3-0.4,0.5-0.8,0.5c-2.8-0.7-5-4.3-5.7-5.7
	s-0.9-4.2-1.1-5.7c0-0.3,0.2-1,0.2-1.1s-0.4,0.1-0.5-0.1c-0.3-0.9-0.7-1.8-1.1-2.6c-0.5-0.8,3.1-4.4,3.1-4.4S64.1,105.2,62.3,109.5z
	"/>
<path class="st65" d="M54.8,73.6c0,0,1.5,21.7,1.3,22.8s-1.6,22.7-1.6,22.7c0.4,0.8,1,1.3,1.8,1.6c2.9,1.3,4.8,3.1,9.4-0.7
	c0-3.7,0.7-20.4,1.1-24.8s2.6-24.2,2.6-24.2L54.8,73.6z"/>
<path class="st66" d="M86,58.6c0,0,0.4,2.4,2.6,2.4c0.2,0,0.6,0.4,1.4,1.2c0.7,0.9,1.4,1.7,2.3,2.4c0.6,0.5,1.9,2.9,2.8,2.8
	s0.7-2.5-0.1-4.6S89.8,58,89.8,58L86,58.6z"/>
<path class="st30" d="M47.2,98.8l17-10.1c-0.1-0.1-0.2-0.2-0.3-0.2L39.8,76.4c-0.1-0.1-0.2-0.1-0.3-0.1c-0.4,0-0.7,0.3-0.7,0.7v17.2
	c0,0.3,0.1,0.5,0.4,0.6L47.2,98.8z"/>
<path class="st31" d="M47.2,98.8l16.1,8c0.1,0.1,0.2,0.1,0.3,0.1c0.4,0,0.7-0.3,0.7-0.7V89c0-0.1,0-0.3-0.1-0.4L47.2,98.8z"/>
<polygon class="st30" points="64.2,88.7 59.2,91.6 34.1,78.9 39.1,76.4 "/>
<polygon class="st31" points="59.1,91.2 64.2,88.7 63.9,106.8 58.9,109.4 "/>
<path class="st32" d="M61.7,108c0.2-0.1,0.3-0.3,0.3-0.6V90.4c0-0.3-0.1-0.5-0.4-0.6l-24.1-12c-0.3-0.2-0.7-0.2-1,0l24.7,12.3
	c0.2,0.1,0.4,0.4,0.4,0.6L61.7,108z"/>
<path class="st33" d="M59.6,87.2h-0.8c-0.3-0.1-0.6-0.1-0.9,0l-2.5,0.9c-0.2,0.1-0.1,0.6,0.1,0.8l0.7,0.3c0.3,0.1,0.6,0.1,0.9,0
	l2.4-1.2C59.8,87.9,59.9,87.4,59.6,87.2z"/>
<path class="st34" d="M59.5,87.2l-0.7-0.3c-0.3-0.1-0.6-0.1-0.9,0L55.6,88c-0.3,0.1-0.3,0.3,0,0.5l0.7,0.3c0.3,0.1,0.6,0.1,0.9,0
	l2.4-1.2C59.8,87.4,59.8,87.3,59.5,87.2z"/>
<path class="st33" d="M41.9,78h-0.8c-0.3-0.1-0.6-0.1-0.9,0l-2.5,0.9c-0.2,0.1-0.1,0.6,0.1,0.8l0.7,0.3c0.3,0.1,0.6,0.1,0.9,0
	l2.4-1.2C42.1,78.7,42.2,78.2,41.9,78z"/>
<path class="st34" d="M41.9,78l-0.7-0.3c-0.3-0.1-0.6-0.1-0.9,0l-2.4,1.2c-0.3,0.1-0.3,0.3,0,0.5l0.7,0.3c0.3,0.1,0.6,0.1,0.9,0
	l2.4-1.2C42.1,78.4,42.1,78.1,41.9,78z"/>
<path class="st33" d="M52.6,84.5h-0.4c-0.2-0.1-0.3-0.1-0.5,0l-1.3,0.5c-0.1,0.1-0.1,0.3,0.1,0.4l0.4,0.2c0.2,0.1,0.3,0.1,0.5,0
	l1.2-0.6C52.7,84.8,52.7,84.5,52.6,84.5z"/>
<path class="st34" d="M52.5,84.4l-0.4-0.2c-0.2-0.1-0.3-0.1-0.5,0l-1.2,0.6c-0.1,0.1-0.1,0.2,0,0.2l0.4,0.2c0.2,0.1,0.3,0.1,0.5,0
	l1.2-0.6C52.7,84.6,52.7,84.5,52.5,84.4z"/>
<path class="st33" d="M47.1,81.3h-0.4c-0.2-0.1-0.3-0.1-0.5,0l-1.3,0.5c-0.1,0.1-0.1,0.3,0.1,0.4l0.4,0.2c0.2,0.1,0.3,0.1,0.5,0
	l1.2-0.6C47.2,81.6,47.2,81.4,47.1,81.3z"/>
<path class="st34" d="M47.1,81.3l-0.4-0.2c-0.2-0.1-0.3-0.1-0.5,0L45,81.7c-0.1,0.1-0.1,0.2,0,0.2l0.4,0.2c0.2,0.1,0.3,0.1,0.5,0
	l1.2-0.6C47.2,81.4,47.2,81.3,47.1,81.3z"/>
<path class="st31" d="M51.5,85.1c-0.2,0-0.3-0.1-0.3-0.3v-2.4L46.3,80v1.6c0,0.2-0.1,0.3-0.3,0.3l0,0c-0.2,0-0.3-0.1-0.3-0.3v-2.1
	c0,0,0-0.1,0-0.1c0.1-0.2,0.3-0.2,0.4-0.1l5.5,2.7c0.1,0.1,0.2,0.2,0.2,0.3v2.6C51.8,85,51.7,85.1,51.5,85.1
	C51.5,85.1,51.5,85.1,51.5,85.1z"/>
<path class="st32" d="M33.8,96.8V79.5c0-0.1,0-0.2,0.1-0.3c0.2-0.3,0.6-0.5,0.9-0.3l24.1,12c0.2,0.1,0.4,0.4,0.4,0.6v17.2
	c0,0.1,0,0.2-0.1,0.3c-0.2,0.3-0.6,0.5-0.9,0.3L34.2,97.4C33.9,97.2,33.8,97,33.8,96.8z"/>
<path class="st31" d="M73.1,39.3l5,13.1c0,0-0.9,0.7,10.8,12.6c-0.7-3.4,4.4-4.4,4.4-4.4L84,47.2c0,0-0.5-1.3-3.3-10.1
	s-6.4-8.4-6.4-8.4C68,31.6,73.1,39.3,73.1,39.3z"/>
<path class="st67" d="M60.5,28.9c-4.1,2.6-8.8,8-9.6,9.9s4,18.7,4.5,19.8S53.9,74,54.2,75s16,2.2,16.4,1s1.1-4,1.1-4l0.1,2.9
	c0,0-0.6,3.4,5.5-4.1c-2.1-17.5-0.3-27.1,0-28.6s-1.7-12.2-2.9-13.3s-6.7-1.2-6.7-1.2S64.7,26.3,60.5,28.9z"/>
<path class="st66" d="M47.1,65c0,0,0.1,8,1.2,10s4.1,5.7,3.5,6.6c-1.2,1.8-5.4,1.3-5.4-1.1l-3-7.4L47.1,65z"/>
<path class="st28" d="M41.9,55.4c0,7.4,0.7,14.8,2.1,22.1c3.3,1.9,6.3-2.5,6.3-2.5s-0.8-15.6-0.7-17.2s6.3-12.2,7.1-16.6
	s-3.6-5.6-3.6-5.6C44.9,42.8,41.9,55.4,41.9,55.4z"/>
<path class="st68" d="M70.5,27.8c-1.5-0.3-3.1-0.5-4.6-0.5c-2.4-0.1-4.7,0.8-6.4,2.4c0,0,12.6,10.5,12.6,23.8
	c2.2-11.6-1.1-24.6-1.1-24.6L70.5,27.8z"/>
<path class="st69" d="M69.9,26.6l-1.4,4.5l-7.9-0.3c0,0,1.1-4,1.3-4.3c0.1-1.7,0.1-3.4-0.1-5.1L69.9,26.6z"/>
<path class="st66" d="M59.9,21.3l2.1,1c0.3,0.9,0.7,1.8,1.3,2.5c0.6,0.4,0.7,2.5,8.2,2.8c1.8-1.5,0.2-9.8,0-11.1s-0.7-3.9-0.7-3.9
	C56,7.4,59.9,21.3,59.9,21.3z"/>
<path class="st70" d="M57.4,19.2c1.2,1.1,4,6.1,4,6.1l0.5-3c-3.8-2.8-0.8-3.3-0.8-3.3l1.8,1.1c0-0.8,0.2-1.6,0.7-2.3
	c1.2-0.6,4.4-2.6,4.4-2.6s0.1-1.3-1,1.3c1.2-0.7,2.4-1.5,3.4-2.5l1.6-1.3c-0.1-3.8-7.1-5-8.4-5C55.7,8.3,56.2,18.1,57.4,19.2z"/>
<path class="st71" d="M61.1,26.1c-0.5,0.3-1.3,2.7-1.3,2.7s0.1,0.5,6.8,4.9c0.1-1.1,0.7-2.2,1.6-2.9C68.1,30.8,61.6,25.8,61.1,26.1z
	"/>
<path class="st72" d="M68.1,30.8l-1.4,1.5c0,0,2.2,2.4,2.8,2.2s0.7-2.6,0.7-2.6C69.1,30.2,68.1,30.8,68.1,30.8z"/>
<path class="st73" d="M71.1,27.8c0,0,0.3-0.3-0.5,4.6c-0.6-0.9-1.5-1.6-2.6-1.7l1.4-3.3L71.1,27.8z"/>
<path class="st72" d="M69.5,33.7c0.6,0.8,1,1.6,1.4,2.5c0.4,1.1,2.5,9.9,2.5,9.9L72,53.4c0,0-2.1-5.9-2.1-6.9s-1.3-7.9-1.5-9.1
	c0-1.2,0-2.4,0.2-3.6L69.5,33.7z"/>
<path class="st74" d="M57.9,30.8c1.2-0.7,4.1,4.8,4.1,4.8l1.4,0.3l-1.4,1.6c4,4.8,7.3,10.2,9.9,15.8c0-3.7-1.8-9.3-4.4-14.1
	c-2-3.7-4.4-7.2-7-10.5L57.9,30.8z"/>
<path class="st74" d="M70.2,27.5c2.3,8.6,2.9,17.5,1.8,26.3c3.4-11.1,2.3-18.2,2.3-18.2l-1.4-1.2l0.9-1.3L72,28L70.2,27.5z"/>
<path class="st0" d="M106.9,162.6c8.2,4.1,8.2,10.7,0,14.8s-21.4,4.1-29.6,0s-8.2-10.7,0-14.8C85.5,158.5,98.8,158.5,106.9,162.6z"
	/>
<path class="st75" d="M91.4,169.1C90.9,170,81,170,81,170c0.1-2,0.3-4,0.6-5.9c0.1-0.7,0.1-1.3-0.1-2h4.6c0.2,1.2,0.5,2.5,0.9,3.6
	C87.6,167,91.9,168.1,91.4,169.1z"/>
<path class="st76" d="M95.1,167.9c0.2,0.2,0.4,0.5,0.5,0.8c0.3,0.9-0.6,2.3-4.2,3.6s-4.3,0.5-7.2,1.6c-1.4,0.6-4.2,0.7-3.4-4
	c0,0,1.8,0,3.9,0c0.2,0.1,0.4,0.2,0.6,0.2c1.6,0.5,3.3,0.5,4.9,0.1c1.3-0.2,2.1-1.4,3.1-1.8L95.1,167.9z"/>
<path class="st77" d="M83.9,173.3c3-0.9,3.6,0,7.3-1.1s4.7-2.5,4.4-3.4c-0.7-2.2-0.3,0.5-7.4-1.1c-0.5-0.1,2.5,0.5,2.4,0.8
	c-0.5,1.5-9.9,0.5-9.9,0.5C79.6,173.7,82.4,173.7,83.9,173.3z"/>
<path class="st75" d="M100.5,175.4c-0.5,1.1-11.3,1.5-11.3,1.5c0-2.2,0.1-4.3,0.4-6.5c0.4-1.9-1-4.6-2-8.3h6
	c0.2,3.4,0.9,6.7,2.1,9.9C96.3,173.3,101,174.3,100.5,175.4z"/>
<path class="st78" d="M103.6,174.6c0.2,0.3,0.3,0.6,0.4,0.9c0.2,0.9-1,2.1-4.8,2.8s-4.4-0.2-7.4,0.3c-1.5,0.3-4.3-0.1-2.6-4.6
	c0,0,1.8,0.4,3.8,0.7c0.2,0.1,0.4,0.2,0.5,0.3c1.5,0.7,3.1,1.1,4.8,1c1.3,0,2.3-1,3.4-1.2L103.6,174.6z"/>
<path class="st77" d="M91.6,177.9c3.1-0.3,3.6,0.6,7.4,0.2s5.1-1.6,4.9-2.5c-0.3-2.2-1.2-0.5-7.9-3.2c-0.4-0.2,3.2,1.9,3.1,2.1
	c-0.8,1.4-9.8-1.3-9.8-1.3C87.3,177.5,90.1,178.1,91.6,177.9z"/>
<path class="st79" d="M86.9,66.7c0.4,0-2.6,6.4-2.6,6.4l1,4l8.4-1.8v-6.2L86.9,66.7z"/>
<path class="st80" d="M111.6,105.1c2,3.1,8.9,5.7,10.9,4c0.6-0.5,3.2-4.2,0.3-3.6s-11.2-3.7-11.2-3.7S109.7,102,111.6,105.1z"/>
<path class="st81" d="M92.8,119.4c0,0,4,43-5,45.8s-7.7-0.4-7.7-0.4v-44.3L92.8,119.4z"/>
<path class="st82" d="M98,120.4l-2.4,49.4c0,0-7.8,5.2-7.5,0.9s-6-50.3-6-50.3H98z"/>
<path class="st83" d="M81.1,76.9c-2.6,8.2,1.1,26.2,1.1,26.2l-4.1,9c0,0-2.5,14.8,1,15.6c12.4,2.8,23.1-3.2,23.1-3.2l-1.1-30
	c0,0-4.9-14.8-5.7-18S84,72.7,84,72.7S81.5,75.2,81.1,76.9z"/>
<path class="st79" d="M89.2,58.5l-1.4,9.9c0,0,7.7,2.5,9.7,1.4c2-1,1.9-13.6,1.9-13.6L89.2,58.5z"/>
<path class="st84" d="M101,97.6l16.2,5.4l-1.9,6.2l-18.8-6.9c0,0-2.2-1.3-4.5-6.3c-5.3-11.8-3.4-16.5-0.7-18.4
	c2.2-1.5,5.6,0.3,6.2,3C99.2,87.9,101,97.6,101,97.6z"/>
<path class="st85" d="M95.9,48.5c2.6,1.6,4,4.7,3.5,7.7l-2.7,4.4c0,0,0.3,2.2-1.5,6.5c-0.9,2.1-9.1,3.2-10.7,1.5
	c-10.4-10.9-0.5-18.2-0.5-18.2C88.8,47.1,91.5,45.8,95.9,48.5z"/>
<path class="st86" d="M82.2,58.8c-2.4,0-5,4.2-5,6.6c0,0.4,0.7-1.3,0.8-0.9c0.3,1,0.6,2.1,1,3.1c0.2,0.4,0-1.3,0.4-1
	c0.8,0.6,1.7,1,2.8,1c2.4,0,4.3-2,4.3-4.4C86.5,60.8,84.5,58.8,82.2,58.8z"/>
<path class="st0" d="M238.7,263.1c-7.9,3.9-7.9,10.3,0,14.2s20.6,3.9,28.5,0s7.9-10.3,0-14.2C259.3,259.2,246.5,259.2,238.7,263.1z"
	/>
<path class="st87" d="M261.2,221.1c0,0-0.3,20.3-0.2,22.3c0.1,2,1.3,5.2,1.2,7.4c-0.1,2.1-1.1,14.8-1.1,14.8v2.4c0,0-5,9.6-10,3.2
	c-0.2-0.3,6.2-3.6,6.2-4.5c0.1-3.2-4.5-21.7-4.5-21.7l-3.1-27.8L261.2,221.1z"/>
<path class="st44" d="M258.4,270.3l-1.8,3.7c-1.2,0.6-2.4,1-3.7,1.2c-2.4,0.1-5.3-0.8-5.1-1.5s3.8-3.3,3.8-3.3s0.1,1.2,2.8-0.1
	c2.7-1.3,5-6.5,6.8-4.8c1.1,1-0.3,3.9-0.4,4.3c-0.2,0.5-1.4,4.8-1.4,4.8C259,275.1,258.4,270.3,258.4,270.3z"/>
<path class="st88" d="M250.7,147.2l7.1-2c0,0,4.6,1,5.2,3.3s0.4,11-0.7,12.5c-0.8,1.2-4.2,0.9-4.2,0.9v3.7c0,1.1-1,4.6-3.2,5.2
	s-4.7-5.2-4.7-5.2L250.7,147.2z"/>
<path class="st88" d="M255.2,217.9l-9.2,21.9c0,0,1.6,2.1,3.8,4.5s3.5,10,4.5,12.9c0.8,2,2.1,3.9,3.6,5.4l-0.4,7.3l-6.7,5.5
	c0,0,1.5-5,2.1-7.5s-2.4-5.1-6.1-11.9s-7.8-11.5-9.1-14.2s3.6-25.6,3.6-25.6"/>
<path class="st89" d="M258.8,268.5l0.6,4.1c0,0-2.3,3.6-3.9,4.8c-2.1,1.5-5.2,1.7-5.4,1s1.1-4.5,1.1-4.5c1.6-0.6,2.9-1.7,3.8-3.1
	c1.7-2.5,0.6-8.2,3.3-7.7c1.6,0.3,2.1,3.4,2.2,3.9c0.1,0.5,1.6,4.8,1.6,4.8C262.2,272,258.8,268.5,258.8,268.5z"/>
<path class="st87" d="M261.1,175l6.8,8.6c0.8,1,0.8,2.4,0,3.4l-5.6,9.3l-6.3,0.8v6.6l6.3-1.4l13.2-14.8c0.8-0.9,0.9-2.2,0.2-3.2
	c-3.1-4.7-11.8-17.5-12.9-18.3c-0.7-0.5-1.7-0.5-2.4,0C255.1,168.3,261.1,175,261.1,175z"/>
<path class="st90" d="M262.8,166.1c3.2,1.6-0.2,15.5-1.4,26.2c-0.2,2.3,1.3,4.6,4,11.5c2.3,5.8,1,16.4,0.7,20.2
	c-0.3,4.1-13.3,3.2-22.1,1.1c-2.8-0.7-5.5-1.8-7.9-3.4c0,0,9.3-28.4,10.4-30.3s-5.1-10-4.7-13.4s3.8-11.1,3.8-11.1
	C247,165.9,259.6,164.5,262.8,166.1z"/>
<path class="st88" d="M232.6,206c-1.2,1.5-2.2,3.1-3,4.8c-0.1,0.3-0.1,0.6,0,1l2,4.6c0.5,1.1,2,2.9,2.2,1.8c0.2-1.8,0.2-3.5,0-5.3
	c-0.6-2.5,1.7-5.1,1.7-5.1l11.9-15.6c0.1-0.1,0.2-0.3,0.2-0.5c0.4-2.3,3.4-18.6,3.7-21.2c0.3-2.8-1.8-5.2-5.2-4
	c-2.4,0.9-3.1,8.6-3.4,14.8c-0.2,4.6-1.7,9-4.2,12.9C235.7,198.8,233.9,204.6,232.6,206z"/>
<path class="st91" d="M261.1,142.5c3.2,2.4,0.9,9.9,0.9,9.9s-1.2-2.1-2-0.3c-0.4,1.3-0.3,2.7,0.5,3.9l-1.5,10.4c0,0-15.2,4.8-16-5.9
	s2.5-17.6,2.5-17.6C249,139.3,255.5,138.4,261.1,142.5z"/>
<path class="st0" d="M159.5,253.9c-7.3,3.6-4,11.3,7.5,17s26.7,7.4,34,3.7s4-11.3-7.5-17C182.1,251.9,166.9,250.3,159.5,253.9z"/>
<path class="st92" d="M192.3,225.1v12l3.2,7.5l0.5,16.8l1.4,6.9l-6.5,1.3l1.4-7.1l-5.5-14.5l-0.4-6.9l-3.6-11.9
	C183,219.6,192.3,225.1,192.3,225.1z"/>
<path class="st92" d="M200.1,197.2c-0.1,1.7-8.2,4.8-8.2,4.8l-1.7,6.7l-0.1-0.4c0.1-0.4,0.1-0.9,0-1.3c-0.7-2.4-1.6-4.8-2.2-7.3
	c3.2-3.5,8.2-4.4,6.7-6.5c-1.8-2.6-5.3-13.3-5.3-13.3s6.2-0.9,6.1,0C195.3,180.8,200.5,189.9,200.1,197.2z"/>
<path class="st93" d="M188.1,173.9c-1.4-0.6-0.8-6.2,0.2-11.6s-3.6-4.6-7.5-6.1s-4,3.2-4,3.2s0.2,9.6,0.9,10.4s2.7-0.6,2.7-0.6
	l-0.9,4.9C180.2,178.3,189.6,174.5,188.1,173.9z"/>
<path class="st94" d="M188.7,268.6c-1.3,0.8-1,1.8-1.3,3.3s5.3,0.9,5.3,0.9c1.1-0.8,2.2-1.5,3.3-2.1c1.1-0.6,2.4,1.3,2.4,1.3
	l-0.5-3.4c0,0-1.5-2.6-2.9-3.1s-2.1,1.8-2.9,2.1s-1-0.7-1-0.7S190,267.8,188.7,268.6z"/>
<path class="st95" d="M196.5,270.6c0.9-0.1,1.7,0.5,1.8,1.4c0,0-2,0.4-5,0.9c-1.7,0.3-3.4,0.2-5-0.4
	C188.9,272.7,194.9,270.6,196.5,270.6z"/>
<path class="st93" d="M180.9,223.9l-5.1,16.3v5.1c0,0-1.1,13.1-1.5,14s-2.8,1.7-3.8,1.5c-1.1-0.6-2-1.6-2.5-2.8
	c-0.1-0.8,1.9-2.6,1.9-2.6l-0.8-9.3v-20.8L180.9,223.9z"/>
<path class="st65" d="M177.8,204.7l6.3,35.2l5.5,26.5c4.9,2.2,8.1,0.5,8.8-1l-2.8-20.9l-2.1-8.5l-0.3-15.6c0.2-1.5-1.3-11-2.1-12.3
	l-1.8-3.3L177.8,204.7z"/>
<path class="st94" d="M165.1,254.8c-2.6-0.8-2.8,1.2-2.6,3.2s4.2,3.9,5.5,4.4s0.8,0.8,1.7,1.5s4.1,0.3,4.9-0.6s-0.6-2.9-0.2-3.1
	s0-1.6,0-1.2s-0.6,0.5-2.5,1.3s-4.1-2.2-3.6-2.3s1-2,1-2C168,255.7,166.6,255.3,165.1,254.8z"/>
<path class="st95" d="M186.2,199.7l-0.5,10.1l-9.2,51c-2.8,2.4-7.7-0.1-9-4.1l3.7-49.4L186.2,199.7z"/>
<path class="st96" d="M191.2,171.8c2.6-0.5,6.9,11.7,6,12.5s-5.9,2.3-5.9,2.3C184.5,171.9,188.6,172.3,191.2,171.8z"/>
<path class="st97" d="M191.7,172c2.2,3.1,0.1,22.1-0.2,27.5c-0.3,4.7,2.3,10.3-1.1,10.8c-2,0.3-8.4,2.2-13.6,1.3
	c-3.7-0.6-7.3-3.6-6.4-5.5c2.1-4.6,3-12.3,0.9-17.1c-1.7-3.9,1.8-15.5,1.8-15.5C176,171.4,189.6,169,191.7,172z"/>
<path class="st93" d="M177.5,180.2c-0.1,0.9-4.2,15.2-4.2,15.2v6.8l-4.7,16.1c0,0,2.7,6.1,2.3,9.2s-3.7-1.6-5.9-4.4
	s1.8-7.3,1.7-16.8s2.3-11.2,1.9-15s2.7-11.3,2.7-11.3S177.6,179.4,177.5,180.2z"/>
<path class="st98" d="M176.6,173.6c2.7,0.3,1.2,12.3,0,12.6s-7.1-1-7.1-1C171,169,174.7,173.3,176.6,173.6z"/>
<path class="st99" d="M192.4,156.9c0.2,0.8-1.3,6.4-1.3,6.4l-0.8-0.6l0.1,2.8c0,0-0.2-1.6-0.4-1.4c-1.4,2-3.5,5.1-3.8,5.2l-3.9-0.1
	l-2.1-4.6c0.7-1.4,0.6-3-0.2-4.3c-1.4-1.9-1.4,2.2-1.4,2.2s-1.9,0.4-2-3.1c0-0.4-1,0.4-1,0.4s1.3-2.6,1.4-3.1s-0.9-0.3-0.9-0.3
	l2.8-3.5C187.8,147.3,191.6,154.4,192.4,156.9z"/>
<path class="st0" d="M5.6,163c-7.5,3.8-7.5,9.9,0,13.6s19.7,3.8,27.3,0s7.5-9.9,0-13.6C25.3,159.2,13.1,159.2,5.6,163z"/>
<path class="st100" d="M17.7,89.7c0.6,1.5,11.5,7.7,17.5,11.1c0.7-1.4,1.9-2.4,3.4-3c-5.3-3.6-15.3-11.4-16-12.2
	c-0.9-1.1,3-7.9,4.6-14s-4.1-7.3-4.1-7.3C19.4,66.5,16.9,87.9,17.7,89.7z"/>
<path class="st101" d="M35.2,100.8c1.6,0.9,2.8,1.6,3.4,2c3.1,1.8,5.8,4.2,6.7,4.2s-1.7-7.3-3.6-7.5c-1.1-0.4-2.2-1-3.1-1.8
	C37.1,98.4,35.9,99.4,35.2,100.8z"/>
<path class="st102" d="M16.1,161.1c-0.2,1.4-0.4,2.7-0.5,4.1l-1.3,4.9c0,0,1.1,0.6,1.4,0s1-4.7,2.1-4.4s1.5,4.3,2.7,5.7
	s6.8,1.8,7.5,1.1s-1.2-4.1-2.3-5.9s-3.7-6.8-3.7-6.8l-4.5-1.4C16.9,159.3,16.5,160.2,16.1,161.1z"/>
<path class="st103" d="M9.3,166.3c0.1,1.4,0.4,2.7,0.7,4l0.1,4.5c0,0,1.2,0.3,1.3-0.3s-0.2-4.2,0.9-4.2s2.6,3.7,4.1,4.7
	s7.1-0.2,7.5-1s-2.3-3.7-3.9-5s-4-5.6-4-5.6H9.8C9.6,164.3,9.4,165.3,9.3,166.3z"/>
<path class="st104" d="M7.1,122.3c-0.1,3.1,1.7,11.6,1.5,16.4c-0.1,3.1-1.5,4.7-0.4,10.6c1.2,6.4,1.5,12.3,1.8,14.1s3.9,5,5.3,6.4
	s5.4,0.3,5.4,0.3S16,165.8,16,164s-0.3-20.1,0.1-23.2s1.4-18.6,1.4-18.6H7.1z"/>
<path class="st101" d="M28.8,116.5c1.8,2.1,5.3,15,4.4,17s-9.3,20.2-11.2,26.3l2.6,7c-2.2,6.7-7.4-7.4-7.4-7.4l0.6-2.2
	c0,0,0.5-14,1.6-17.8s3.9-5.5,4.4-7.7s-6-12.5-6-12.5L28.8,116.5z"/>
<path class="st105" d="M16.7,45.1c2.2-0.6,6.7,1.2,6.7,1.2s2,14.9-0.8,18.4c-0.6,0.8-6.8,0.4-6.8,0.4l1.6-7.9
	C17.3,57.2,14.5,45.7,16.7,45.1z"/>
<path class="st106" d="M11.6,69.3c0,0,2.3,7.3,2.9,7.6s6.4,1,6.4,1l2-4.3l-3.2-10.2h-1.2l0.5-2.8c1,0,2-0.4,2.8-1.1
	c1.4-1.2,1.1-10.7,0.5-13.6s-6-2.7-12.6,0s3.5,11.7,3.5,11.7v6.6l-2.5,0.6l-1,0.6L11.6,69.3z"/>
<path class="st107" d="M21.7,74.2l-1.9,3.1c0,0-13.6-16.3-7.2-12c2.2,1.5,4.8,5.4,5.8,5c1.9-0.7,0.5-6.6,0.5-6.6L21.7,74.2z"/>
<path class="st108" d="M3.9,67.7c1,3.4,7.5,24.3,7.5,25.7c0,1.6-5.7,10.3-6.1,11.3c-4,9.7-1.8,23.9-1.8,24.9
	c-0.2,1.7,8.6,0.9,13.5,0.9c10.7,0,17.1-7.1,16-10.1c-1.1-3-7.8-26.5-7.7-27.8s2.5-12.2,2.9-14.7s-4.6-13.6-4.6-13.6
	s-4.9-1.2-3.9-0.9c-1.4-0.4,1,11.8,1,10.1c0,0-7.8-6.2-9.6-8.8c-0.4-0.5-1.1-0.7-1.6-0.4l-4.9,2.2C4,66.7,3.8,67.2,3.9,67.7z"/>
<path class="st109" d="M10.6,64.7l-1.1,0.2l6.5,7.9c0.2-0.2,0.5-1.1,1.2-0.9c1.2,0.3,2.3,0.9,3.3,1.6L10.6,64.7z"/>
<path class="st100" d="M20.6,73.5c0.2-0.8-0.1-1.7,0.5-2s2,0.2,1.8,0.1S21.3,64,21.3,64l-1.4-0.7C19.8,63.3,19.9,76.4,20.6,73.5z"/>
<path class="st106" d="M12.4,104.7c-1.6,0-3.1,0.1-4.7,0.3c1.3,2.8,2.2,5,2.4,5.6c0.4,1.6,4.7,11.5,6.5,8.6s-2.4-9-2.4-9L12.4,104.7
	z"/>
<path class="st109" d="M2.7,94.5c1.2,3,4.2,9.4,6.5,14.5c0.4,0.9,1.3,1.4,2.3,1.4l0,0c0.2,0,0.4,0,0.5-0.1c1.2-0.4,1.9-1.7,1.5-2.9
	L9.2,94.5c-0.1-0.2-0.1-0.4-0.1-0.6l-1-26.1C6.9,65,4.2,66.6,3,67.5c-0.5,0.4-0.8,0.9-0.9,1.5C1.4,73.8,2.1,93.2,2.7,94.5z"/>
<path class="st110" d="M22.7,52.9c-0.2,0.2,0.3-6.6-0.7-6.5c-1,0.5-1.9,1.1-2.7,1.9l0,0c0,0-2.7,3.3-3.2,4.7s0.4-2.4,0.4-2.4l0,0
	c0,0-1.4,3-2.7,6c0.2,5.6,0.5,14.6,0.4,19.6c0,0.6-0.5-0.5-0.5-0.5s0.3,3.3-0.3,2.3c-2.1-3.6-3.5-10-6.1-13.8
	c-2.6-3.8-0.8-7.1-0.9-16s10.8-9,14.4-6.5C24.5,44.2,23.8,51.8,22.7,52.9z"/>
<path class="st0" d="M47.5,219c-10.5,5.2-10.5,13.8,0,19s27.5,5.2,38,0s10.5-13.8,0-19C75,213.8,58,213.8,47.5,219z"/>
<path class="st23" d="M78.2,226.8c0,0,6.8-0.4,10.5,1.4s-11.6,7.2-11.6,7.2l-1.4-0.4c0,0,0.2,0.5-0.2,0.7c-7.7,3.3-8.3-1.6-8.3-1.6
	l0.2-3.5L78.2,226.8z"/>
<path class="st24" d="M78.2,226.2c0,0,6.8-0.4,10.5,1.4s-11.6,7.2-11.6,7.2l-1.4-0.4c0,0,0.2,0.5-0.2,0.7c-7.7,3.3-8.3-1.6-8.3-1.6
	l0.2-3.5L78.2,226.2z"/>
<path class="st111" d="M47.3,167.9c0,0-8.4-14.1-8-18.9S50,123.8,50,123.8C64.1,123,47.3,167.9,47.3,167.9z"/>
<path class="st26" d="M66,129.9l-2.6-6.4c0,0-0.4-1.3,0.2-1.2c6.5,0.8,5-4.4,5.4-7.7c0.1-3,0-5.9-0.2-8.9c-0.1-0.6-1.4-4.4-7.6-3
	s-6.5,12.5-6.2,15.6s0.7,6.4,0.7,6.4L66,129.9z"/>
<path class="st23" d="M58.3,220.8c0,0,6.8-0.8,10.6,0.8s-11.2,7.8-11.2,7.8l-1.4-0.3c0,0,0.2,0.5-0.2,0.7c-7.5,3.7-8.3-1.1-8.3-1.1
	v-3.5L58.3,220.8z"/>
<path class="st24" d="M58.3,220.3c0,0,6.8-0.8,10.6,0.8s-11.2,7.8-11.2,7.8l-1.4-0.3c0,0,0.2,0.5-0.2,0.7c-7.5,3.7-8.3-1.1-8.3-1.1
	v-3.5L58.3,220.3z"/>
<path class="st112" d="M60.1,173.5l1,25.8l0,0l-1.4,20.3l1,1.2c0,0.4-0.4,1.7-4.9,4.5c-2.8,1.9-6.6,1.7-9.2-0.5
	c-0.1-0.1-0.1-0.2-0.1-0.3l1.7-26l0,0l-0.5-27.5L60.1,173.5z"/>
<path class="st113" d="M70.5,174l5,27.1l4.5,23.4l1.6,2.4c-8,9.2-14.8,4.1-14.8,4.1s-3.7-24.3-5-28.2s-10.2-29.4-10.2-29.4L70.5,174
	z"/>
<path class="st114" d="M70.2,102.3c0.3,1.3,0.2,2.6-0.2,3.8c-0.4,1.3-3.7,8.3-3.7,8.3s0.7-0.9,0.3-3.2s-3.1,4.1-3.1,4.1l-2.4,4.5
	l-5.8,1.5l-0.5-1.5c-1-2.6-2.2-5.1-3.6-7.5c-1-1.5-0.9-3.4-0.9-4.8c0-1.8-0.4-2.8,3.6-6.8C58,96.5,64,98.8,64,98.8
	C69.6,100.4,69.8,101.4,70.2,102.3z"/>
<path class="st115" d="M50.1,123.3c1.9-2.2,4.9-1.2,8.1,0.4c3.1,1.4,6.1,3.1,8.9,5c9,5.8,5.9,25.1,5.9,25.1l0.3,20.3
	c0,0,2.9,13.7-4.4,16s-22.6-0.9-24-3s2.4-32.1,2.1-41.5C47.1,145.6,46.8,127.4,50.1,123.3z"/>
<path class="st36" d="M50.3,124.8"/>
<path class="st26" d="M76.1,172.9l2.5,6.4c0,0-1.1,10.6-2.3,10.6c-1.4,0-1.7-6.4-2.4-7.2c-0.6-0.9-1-1.8-1.5-2.7l-2.1-3.4
	L76.1,172.9z"/>
<path class="st116" d="M72.8,140.5l0.4,16.3l5.9,20.8c-1.1,1.1-2.3,2.1-3.7,2.8c-2.1,1-4.5-0.5-4.5-0.5l-7.3-23.1
	c0,0-1.4-17.6-0.4-21.1c1-3.5,2.5-4.3,5.2-3.8C72.8,132.9,72.8,140.5,72.8,140.5z"/>
<path class="st117" d="M92.4,202.9v-18.8c0-1.7-1.4-2.4-3.1-1.6l-28.9,14.5c-1.8,0.9-3,2.7-3.1,4.7v18.8c0,1.7,1.4,2.4,3.1,1.6
	l28.9-14.5C91,206.7,92.2,205,92.4,202.9z"/>
<polygon class="st117" points="60.9,200.6 91.5,182.5 96.8,185.1 63.4,225 58.1,222.3 "/>
<path class="st118" d="M81.9,182.5c0.5-0.3,2,0.3,2,0.8l-1,0.7v3.7c0,0.5,0.2,1.2-0.3,1.5l0.2,0.6c-0.5,0.3-1.9-0.5-1.9-1.1v-2.8
	c0-0.5-0.5-0.7-1-0.5l-6.4,3.2c-0.6,0.3-0.9,0.8-1,1.4v2.8c0,0.5,0.3,1-0.3,1.3l0.2,0.8c-0.5,0.3-1.9-0.6-1.9-1.1v-4.8
	c0.1-0.6,0.4-1.2,1-1.4l1-0.5l8.3-4.2L81.9,182.5z"/>
<path class="st119" d="M83,183.1c0.6-0.3,1,0,1,0.5v4.8c-0.1,0.6-0.4,1.2-1,1.4l0,0c-0.6,0.3-1,0-1-0.5v-2.8c0-0.5-0.5-0.7-1-0.5
	l-6.4,3.2c-0.6,0.3-0.9,0.8-1,1.4v2.8c-0.1,0.6-0.4,1.2-1,1.4l0,0c-0.6,0.3-1,0-1-0.5v-4.8c0.1-0.6,0.4-1.2,1-1.4l1-0.5l8.3-4.2
	L83,183.1z"/>
<path class="st120" d="M97.7,186.9v18.8c-0.1,1.3-0.6,2.5-1.5,3.4l-16.3-3.9l17.2-19.8C97.5,185.8,97.7,186.3,97.7,186.9z"/>
<path class="st120" d="M79.9,205.1l16.3,3.9c-0.5,0.5-1,1-1.7,1.3l-28.9,14.5c-1.7,0.9-3.1,0.2-3.1-1.6v-9.4L79.9,205.1z"/>
<path class="st121" d="M97.7,186.9v9.3l-17.7,8.9l-17.4,8.8v-9.4c0.1-1.2,0.6-2.3,1.4-3.2c0.5-0.6,1.1-1.1,1.8-1.4l28.9-14.5
	c0.8-0.5,1.8-0.5,2.5,0C97.5,185.7,97.7,186.3,97.7,186.9z"/>
<path class="st120" d="M97.7,196.2v9.5c-0.1,1.3-0.6,2.5-1.5,3.4l-16.3-3.9L97.7,196.2z"/>
<polygon class="st122" points="85.5,201.6 79.4,204.7 79.4,206.7 85.5,203.6 "/>
</svg>
