<svg id="Layer_1" data-name="Layer 1" xmlns="http://www.w3.org/2000/svg" viewBox="0 0 481 149"><defs><style>.cls-1{isolation:isolate;}.cls-2{fill:#fff;}</style></defs><title>Artboard 1</title><g class="cls-1"><path class="cls-2" d="M93.82,103.82a42.63,42.63,0,0,1-13.6,31.91,45.36,45.36,0,0,1-32.61,13.1,47.33,47.33,0,0,1-33-12.58Q.2,123.28.2,104.32A43.75,43.75,0,0,1,13.7,71.88,44.94,44.94,0,0,1,46.41,58.61,48.5,48.5,0,0,1,78.22,70V9q0-7.4,7.8-7.4T93.82,9Zm-15.6-.7a26.76,26.76,0,0,0-9.5-20.94,32.67,32.67,0,0,0-22.31-8.37,29.51,29.51,0,0,0-21.61,9,29.32,29.32,0,0,0-9,21.53q0,12.57,9.8,21.14a32,32,0,0,0,22,8.17,29.51,29.51,0,0,0,21.6-9A29.32,29.32,0,0,0,78.22,103.12Z"/><path class="cls-2" d="M196.85,81.82q0,3.2-3.6,5.6L135.63,127a29.32,29.32,0,0,0,20.4,7.6,37.91,37.91,0,0,0,18.1-4.9q9.1-4.9,10.7-4.9,7.4,0,7.4,6.2,0,3.6-4.4,7.4-12.41,11-31.81,11A45.39,45.39,0,0,1,123.13,136a43.89,43.89,0,0,1-13.7-32.61q0-19,15.2-31.81a51.18,51.18,0,0,1,33.81-12q22.6,0,35.81,16.6Q196.84,79.62,196.85,81.82ZM177,80.6a30,30,0,0,0-18.6-6.39,35,35,0,0,0-22.8,8Q125,90.82,125,103.43a28,28,0,0,0,2.21,11.41Z"/><path class="cls-2" d="M290.07,75.21a9.14,9.14,0,0,1-2.2,5.9,6.73,6.73,0,0,1-5.4,2.7q-2,0-9.4-4.8a27.61,27.61,0,0,0-15.2-4.8,35,35,0,0,0-22.81,8q-10.61,8.6-10.6,21.21a30.18,30.18,0,0,0,9.1,22,29.69,29.69,0,0,0,21.9,9.2,37.4,37.4,0,0,0,16.8-4.3q8.6-4.3,9.6-4.3a8.9,8.9,0,0,1,5.7,2,6.16,6.16,0,0,1,2.5,5q0,7.61-14,12.6a64.64,64.64,0,0,1-20.6,3.8A45.39,45.39,0,0,1,222.55,136a43.89,43.89,0,0,1-13.7-32.61q0-19,15.2-31.81a51.18,51.18,0,0,1,33.81-12q17,0,30.61,11.8A4.8,4.8,0,0,1,290.07,75.21Z"/><path class="cls-2" d="M398.09,142q0,7.2-7.8,7.2-5.2,0-6.8-3.8-1-2-1-8a52,52,0,0,1-33.61,11.8A45.45,45.45,0,0,1,316,135.86a43.75,43.75,0,0,1-13.7-32.54q0-19,15.2-31.74a51.25,51.25,0,0,1,33.81-12q18.2,0,31.21,11.8,0-5.6,1-7.8,1.8-3.4,6.8-3.4,7.8,0,7.8,7.2Zm-16-36.51a30.43,30.43,0,0,0-9.07-22,29.46,29.46,0,0,0-21.84-9.27,34.89,34.89,0,0,0-22.74,8q-10.57,8.57-10.57,21.13a30.08,30.08,0,0,0,9.07,21.93,29.61,29.61,0,0,0,21.84,9.17,34.89,34.89,0,0,0,22.74-8Q382.09,118.08,382.09,105.52Z"/><path class="cls-2" d="M465.51,0q14.2,0,14.2,7.4,0,7.2-16.2,7.2-22.81,0-22.81,25.81v19.4h23.81q7.8,0,7.8,7.5,0,7.7-7.8,7.7H440.7v66q0,7.38-7.8,7.38t-7.8-7.4V74.81q-7.4,0-9.2-.6-5-1.4-5-7,0-5.4,5-6.8,1.8-.6,9.2-.6,0-32.41,4.6-42.41Q437.5,0,465.51,0Z"/></g></svg>