<svg xmlns="http://www.w3.org/2000/svg" viewBox="0 0 601.77 530.64"><defs><style>.a{fill:#ffefb2;}.b,.g,.h{fill:none;stroke-width:2px;}.b{stroke:#e9f4ec;}.b,.g{stroke-miterlimit:10;}.c{fill:#c8e0f4;}.d{fill:#fccfc5;}.e{fill:#e8f2fb;}.f{fill:#c2e3cb;}.g{stroke:#fff4ca;}.h{stroke:#c3dff5;stroke-linecap:round;stroke-linejoin:round;}</style></defs><title>shapes</title><path class="a" d="M173,119.5c2.43,1.3-.29,5.38,2.81,7" transform="translate(-4.9 -9.26)"/><path class="a" d="M162.78,114c2.43,1.29-.3,5.38,2.8,7" transform="translate(-4.9 -9.26)"/><path class="a" d="M173,119.5c-2.43-1.3-4.32,3.23-7.42,1.58" transform="translate(-4.9 -9.26)"/><path class="a" d="M155.36,115.61" transform="translate(-4.9 -9.26)"/><path class="a" d="M162.78,114c-2.43-1.3-4.32,3.23-7.42,1.57" transform="translate(-4.9 -9.26)"/><polygon class="b" points="125.1 233.74 117.06 231.95 119.53 239.81 122.01 247.67 127.58 241.6 133.15 235.52 125.1 233.74"/><path class="c" d="M535.75,27.17l.12-.07a9.53,9.53,0,0,0,2.56-13.21,9.52,9.52,0,0,0-13.07-3.22l-.11.08Z" transform="translate(-4.9 -9.26)"/><path class="d" d="M455.75,153.75a7,7,0,1,1,7-7A7,7,0,0,1,455.75,153.75Zm0-12.59a5.59,5.59,0,1,0,5.59,5.59A5.6,5.6,0,0,0,455.75,141.16Z" transform="translate(-4.9 -9.26)"/><path class="d" d="M155.75,409.42a7,7,0,1,1,7-7A7,7,0,0,1,155.75,409.42Zm0-12.59a5.59,5.59,0,1,0,5.59,5.59A5.6,5.6,0,0,0,155.75,396.83Z" transform="translate(-4.9 -9.26)"/><polygon class="b" points="481.1 291.07 479.08 283.08 473.17 288.83 467.27 294.57 475.2 296.81 483.13 299.06 481.1 291.07"/><path class="e" d="M578,281l0-.26-1.28-7.64-7,3.26-1.19-7.58L561.43,272l-.89-5.93-1.23.18,1.15,7.56,7-3.26,1.19,7.58,7.06-3.27,1.28,7.63,1.18-.55a4.83,4.83,0,0,1-.2-1C578,280.87,578,281.07,578,281Z" transform="translate(-4.9 -9.26)"/><line class="e" x1="555.39" y1="255.19" x2="555.64" y2="256.83"/><path class="e" d="M52.6,282.88l0-.26L51.29,275l-7,3.26-1.19-7.58-7,3.26-.9-5.92-1.22.18L35,275.75l7.06-3.27,1.18,7.58,7.06-3.26,1.29,7.63,1.18-.55a5,5,0,0,1-.21-1C52.6,282.79,52.62,283,52.6,282.88Z" transform="translate(-4.9 -9.26)"/><line class="e" x1="29.98" y1="257.11" x2="30.22" y2="258.74"/><path class="c" d="M76.18,522l-.12.07a9.76,9.76,0,0,0,10.51,16.43l.11-.08Z" transform="translate(-4.9 -9.26)"/><path class="a" d="M456.33,431c2.43,1.3-.29,5.38,2.81,7" transform="translate(-4.9 -9.26)"/><path class="a" d="M446.11,425.54c2.43,1.29-.29,5.38,2.81,7" transform="translate(-4.9 -9.26)"/><path class="a" d="M456.33,431c-2.43-1.3-4.31,3.23-7.41,1.58" transform="translate(-4.9 -9.26)"/><path class="a" d="M438.69,427.11" transform="translate(-4.9 -9.26)"/><path class="a" d="M446.11,425.54c-2.43-1.3-4.32,3.23-7.42,1.57" transform="translate(-4.9 -9.26)"/><path class="d" d="M83.93,62c6.18-1.26,10.1-7.65,8.75-14.28,0-.06,0-.11,0-.17L80.55,50" transform="translate(-4.9 -9.26)"/><path class="d" d="M527.47,486.7c-6.09,1.63-9.62,8.25-7.88,14.78l.06.17,11.92-3.18" transform="translate(-4.9 -9.26)"/><polygon class="f" points="596.7 411.51 591.3 417.56 583.37 415.91 580.83 408.21 586.22 402.17 594.16 403.81 596.7 411.51"/><polygon class="f" points="20.7 122.85 15.3 128.89 7.37 127.25 4.83 119.55 10.22 113.5 18.16 115.15 20.7 122.85"/><polygon class="g" points="380.03 20.85 374.64 26.89 366.7 25.25 364.16 17.55 369.56 11.5 377.49 13.15 380.03 20.85"/><polygon class="g" points="238.03 512.18 232.64 518.23 224.7 516.58 222.16 508.88 227.56 502.83 235.49 504.48 238.03 512.18"/><path class="h" d="M11.37,319.88c1.92,3.62-2.87,4.57-.92,7.91" transform="translate(-4.9 -9.26)"/><path class="h" d="M16,329.26c-2-.43-4.33.73-5.59-1.47" transform="translate(-4.9 -9.26)"/><path class="h" d="M4,316.77" transform="translate(-4.9 -9.26)"/><path class="h" d="M11.37,319.88c-1.39-2.4-3.62-1.18-5.47-1.63" transform="translate(-4.9 -9.26)"/><path class="h" d="M601,221c1.92,3.62-2.86,4.57-.92,7.91" transform="translate(-4.9 -9.26)"/><path class="h" d="M605.67,230.39c-2-.43-4.33.73-5.59-1.48" transform="translate(-4.9 -9.26)"/><path class="h" d="M593.66,217.9" transform="translate(-4.9 -9.26)"/><path class="h" d="M601,221c-1.39-2.4-3.61-1.18-5.47-1.63" transform="translate(-4.9 -9.26)"/></svg>